<svg xmlns="http://www.w3.org/2000/svg" viewBox="0 0 1725.17 1299.13">
	<title>geometric</title>
	<g style="isolation:isolate">
		<rect width="1725.17" height="1299.13" style="fill:#DED6CB" />
		<g style="opacity:0.48;mix-blend-mode:multiply;isolation:isolate">
			<polygon points="886.25 450.33 957.69 336.95 1024.7 447.26 953.26 560.64 886.25 450.33" style="fill:none;stroke:#000;stroke-miterlimit:10;stroke-width:0.5px"
			/>
			<polygon points="957.69 336.95 1107.05 338.04 1174.07 448.35 1024.7 447.26 957.69 336.95" style="fill:none;stroke:#000;stroke-miterlimit:10;stroke-width:0.5px"
			/>
			<polygon points="1106.79 338.18 1173.8 448.49 1024.79 447.4 957.77 337.09 1106.79 338.18" style="fill:none;stroke:#000;stroke-miterlimit:10;stroke-width:0.5px"
			/>
			<polygon points="957.77 337.09 1106.79 338.18 1173.8 448.49 1024.79 447.4 957.77 337.09" style="fill:none;stroke:#000;stroke-miterlimit:10;stroke-width:0.5px"
			/>
			<polygon points="1173.8 448.49 1102.54 561.59 953.53 560.5 1024.79 447.4 1173.8 448.49" style="fill:none;stroke:#000;stroke-miterlimit:10;stroke-width:0.5px"
			/>
			<polygon points="1173.71 448.35 1173.8 448.49 1102.54 561.59 953.53 560.5 1024.79 447.4 1024.7 447.26 1024.7 447.26 953.26 560.64 1102.63 561.73 1174.07 448.35 1173.71 448.35"
			 style="fill:none;stroke:#000;stroke-miterlimit:10;stroke-width:0.5px" />
			<polygon points="957.77 337.09 1024.79 447.4 953.53 560.5 886.51 450.2 957.77 337.09" style="fill:none;stroke:#000;stroke-miterlimit:10;stroke-width:0.5px"
			/>
			<polygon points="886.51 450.2 957.77 337.09 1024.79 447.4 953.53 560.5 886.51 450.2" style="fill:none;stroke:#000;stroke-miterlimit:10;stroke-width:0.5px"
			/>
			<polygon points="1035.52 451.28 1106.79 338.18 1173.8 448.49 1102.54 561.59 1035.52 451.28" style="fill:none;stroke:#000;stroke-miterlimit:10;stroke-width:0.5px"
			/>
			<polygon points="886.51 450.2 1035.52 451.28 1102.54 561.59 953.53 560.5 886.51 450.2" style="fill:none;stroke:#000;stroke-miterlimit:10;stroke-width:0.5px"
			/>
			<polygon points="1035.52 451.28 1102.54 561.59 953.53 560.5 886.51 450.2 1035.52 451.28" style="fill:none;stroke:#000;stroke-miterlimit:10;stroke-width:0.5px"
			/>
			<polygon points="1106.79 338.18 1173.8 448.49 1102.54 561.59 1035.52 451.28 1106.79 338.18" style="fill:none;stroke:#000;stroke-miterlimit:10;stroke-width:0.5px"
			/>
			<path d="M957.42,333.7l149.36,1.09-71.43,113.38L886,447.08ZM1035.26,448l71.26-113.11-149-1.08L886.25,447l149,1.09" transform="translate(0.27 3.25)"
			 style="fill:none;stroke:#000;stroke-miterlimit:10;stroke-width:0.5px" />
			<polygon points="1127.41 309.51 1035.52 451.28 847.85 450.2 939.73 308.42 1127.41 309.51" style="fill:none;stroke:#000;stroke-miterlimit:10;stroke-width:0.5px"
			/>
			<polygon points="1107.05 338.04 1174.07 448.35 1102.63 561.73 1035.62 451.42 1107.05 338.04" style="fill:none;stroke:#000;stroke-miterlimit:10;stroke-width:0.5px"
			/>
			<polygon points="1035.62 451.42 1102.63 561.73 953.26 560.64 886.25 450.33 1035.62 451.42" style="fill:none;stroke:#000;stroke-miterlimit:10;stroke-width:0.5px"
			/>
		</g>
		<g style="opacity:0.8300000000000001;mix-blend-mode:multiply;isolation:isolate">
			<polygon points="599.92 567.2 671.36 453.81 738.37 564.12 666.94 677.5 599.92 567.2" style="fill:#fac551;stroke:#000;stroke-miterlimit:10;stroke-width:0.5px"
			/>
			<polygon points="671.36 453.81 820.73 454.9 887.74 565.21 738.37 564.12 671.36 453.81" style="fill:#fac551;stroke:#000;stroke-miterlimit:10;stroke-width:0.5px"
			/>
			<polygon points="820.46 455.04 887.47 565.35 738.46 564.26 671.45 453.96 820.46 455.04" style="fill:#fac551;stroke:#000;stroke-miterlimit:10;stroke-width:0.5px"
			/>
			<polygon points="671.45 453.96 820.46 455.04 887.47 565.35 738.46 564.26 671.45 453.96" style="fill:#fac551;stroke:#000;stroke-miterlimit:10;stroke-width:0.5px"
			/>
			<polygon points="887.47 565.35 816.21 678.46 667.2 677.37 738.46 564.26 887.47 565.35" style="fill:#fac551;stroke:#000;stroke-miterlimit:10;stroke-width:0.5px"
			/>
			<polygon points="887.38 565.21 887.47 565.35 816.21 678.46 667.2 677.37 738.46 564.26 738.38 564.12 738.37 564.12 666.94 677.5 816.3 678.59 887.74 565.21 887.38 565.21"
			 style="fill:#fac551;stroke:#000;stroke-miterlimit:10;stroke-width:0.5px" />
			<polygon points="671.45 453.96 738.46 564.26 667.2 677.37 600.19 567.06 671.45 453.96" style="fill:#fac551;stroke:#000;stroke-miterlimit:10;stroke-width:0.5px"
			/>
			<polygon points="600.19 567.06 671.45 453.96 738.46 564.26 667.2 677.37 600.19 567.06" style="fill:#fac551;stroke:#000;stroke-miterlimit:10;stroke-width:0.5px"
			/>
			<polygon points="749.2 568.15 820.46 455.04 887.47 565.35 816.21 678.45 749.2 568.15" style="fill:#fac551;stroke:#000;stroke-miterlimit:10;stroke-width:0.5px"
			/>
			<polygon points="600.19 567.06 749.2 568.15 816.21 678.45 667.2 677.37 600.19 567.06" style="fill:#fac551;stroke:#000;stroke-miterlimit:10;stroke-width:0.5px"
			/>
			<polygon points="749.2 568.15 816.21 678.46 667.2 677.37 600.19 567.06 749.2 568.15" style="fill:#fac551;stroke:#000;stroke-miterlimit:10;stroke-width:0.5px"
			/>
			<polygon points="820.46 455.04 887.47 565.35 816.21 678.46 749.2 568.15 820.46 455.04" style="fill:#fac551;stroke:#000;stroke-miterlimit:10;stroke-width:0.5px"
			/>
			<path d="M671.09,450.57l149.37,1.09L749,565,599.66,564ZM748.93,564.9l71.26-113.1-149-1.09-71.26,113.1,149,1.09" transform="translate(0.27 3.25)"
			 style="fill:#fac551;stroke:#000;stroke-miterlimit:10;stroke-width:0.5px" />
			<polygon points="777.89 408.63 706.63 521.73 557.62 520.64 628.88 407.54 777.89 408.63" style="fill:#fac551;stroke:#000;stroke-miterlimit:10;stroke-width:0.5px"
			/>
			<polygon points="820.73 454.9 887.74 565.21 816.3 678.59 749.29 568.28 820.73 454.9" style="fill:#fac551;stroke:#000;stroke-miterlimit:10;stroke-width:0.5px"
			/>
			<polygon points="749.29 568.28 816.3 678.59 666.94 677.5 599.92 567.2 749.29 568.28" style="fill:#fac551;stroke:#000;stroke-miterlimit:10;stroke-width:0.5px"
			/>
		</g>
		<polygon points="535.67 369.4 464.89 483.86 334.75 484.45 405.54 369.99 535.67 369.4" style="fill:none;stroke:#000;stroke-miterlimit:10;stroke-width:0.5px"
		/>
		<g style="opacity:0.8300000000000001;mix-blend-mode:multiply;isolation:isolate">
			<polygon points="881.75 788.9 953.18 675.52 1020.19 785.83 948.76 899.21 881.75 788.9" style="fill:#471d2d;stroke:#000;stroke-miterlimit:10;stroke-width:0.5px"
			/>
			<polygon points="953.18 675.52 1102.55 676.61 1169.56 786.92 1020.19 785.83 953.18 675.52" style="fill:#471d2d;stroke:#000;stroke-miterlimit:10;stroke-width:0.5px"
			/>
			<polygon points="1102.28 676.75 1169.29 787.06 1020.28 785.97 953.27 675.66 1102.28 676.75" style="fill:#471d2d;stroke:#000;stroke-miterlimit:10;stroke-width:0.5px"
			/>
			<polygon points="953.27 675.66 1102.28 676.75 1169.29 787.06 1020.28 785.97 953.27 675.66" style="fill:#471d2d;stroke:#000;stroke-miterlimit:10;stroke-width:0.5px"
			/>
			<polygon points="1169.29 787.06 1098.03 900.16 949.02 899.07 1020.28 785.97 1169.29 787.06" style="fill:#471d2d;stroke:#000;stroke-miterlimit:10;stroke-width:0.5px"
			/>
			<polygon points="1169.21 786.92 1169.29 787.06 1098.03 900.16 949.02 899.07 1020.28 785.97 1020.2 785.83 1020.19 785.83 948.76 899.21 1098.12 900.3 1169.56 786.92 1169.21 786.92"
			 style="fill:#471d2d;stroke:#000;stroke-miterlimit:10;stroke-width:0.5px" />
			<polygon points="953.27 675.66 1020.28 785.97 949.02 899.07 882.01 788.77 953.27 675.66" style="fill:#471d2d;stroke:#000;stroke-miterlimit:10;stroke-width:0.5px"
			/>
			<polygon points="882.01 788.77 953.27 675.66 1020.28 785.97 949.02 899.07 882.01 788.77" style="fill:#471d2d;stroke:#000;stroke-miterlimit:10;stroke-width:0.5px"
			/>
			<polygon points="1031.02 789.85 1102.28 676.75 1169.29 787.06 1098.03 900.16 1031.02 789.85" style="fill:#471d2d;stroke:#000;stroke-miterlimit:10;stroke-width:0.5px"
			/>
			<polygon points="882.01 788.77 1031.02 789.85 1098.03 900.16 949.02 899.07 882.01 788.77" style="fill:#471d2d;stroke:#000;stroke-miterlimit:10;stroke-width:0.5px"
			/>
			<polygon points="1031.02 789.85 1098.03 900.16 949.02 899.07 882.01 788.77 1031.02 789.85" style="fill:#471d2d;stroke:#000;stroke-miterlimit:10;stroke-width:0.5px"
			/>
			<polygon points="1102.28 676.75 1169.29 787.06 1098.03 900.16 1031.02 789.85 1102.28 676.75" style="fill:#471d2d;stroke:#000;stroke-miterlimit:10;stroke-width:0.5px"
			/>
			<path d="M952.91,672.28l149.37,1.08-71.44,113.38-149.36-1.08Zm77.84,114.33L1102,673.5l-149-1.08-71.26,113.1,149,1.09"
			 transform="translate(0.27 3.25)" style="fill:#471d2d;stroke:#000;stroke-miterlimit:10;stroke-width:0.5px" />
			<polygon points="1102.28 676.75 1031.02 789.85 882.01 788.77 953.27 675.66 1102.28 676.75" style="fill:#471d2d;stroke:#000;stroke-miterlimit:10;stroke-width:0.5px"
			/>
			<polygon points="1117.91 774.97 1184.92 885.28 1113.48 998.66 1046.47 888.35 1117.91 774.97" style="fill:#471d2d;stroke:#000;stroke-miterlimit:10;stroke-width:0.5px"
			/>
			<g style="mix-blend-mode:multiply">
				<polygon points="1010.49 828.22 1077.5 938.53 928.14 937.44 861.12 827.13 1010.49 828.22" style="fill:#471d2d;stroke:#000;stroke-miterlimit:10;stroke-width:0.5px"
				/>
			</g>
		</g>
		<g style="opacity:0.8300000000000001;mix-blend-mode:multiply;isolation:isolate">
			<polygon points="812.99 679.34 884.42 565.96 951.43 676.27 880 789.65 812.99 679.34" style="fill:#471d2d;stroke:#000;stroke-miterlimit:10;stroke-width:0.5px"
			/>
			<polygon points="884.42 565.96 1033.79 567.05 1100.8 677.36 951.43 676.27 884.42 565.96" style="fill:#471d2d;stroke:#000;stroke-miterlimit:10;stroke-width:0.5px"
			/>
			<polygon points="1033.52 567.19 1100.53 677.5 951.52 676.41 884.51 566.11 1033.52 567.19" style="fill:#471d2d;stroke:#000;stroke-miterlimit:10;stroke-width:0.5px"
			/>
			<polygon points="884.51 566.11 1033.52 567.19 1100.53 677.5 951.52 676.41 884.51 566.11" style="fill:#471d2d;stroke:#000;stroke-miterlimit:10;stroke-width:0.5px"
			/>
			<polygon points="1100.53 677.5 1029.27 790.6 880.26 789.52 951.52 676.41 1100.53 677.5" style="fill:#471d2d;stroke:#000;stroke-miterlimit:10;stroke-width:0.5px"
			/>
			<polygon points="1100.45 677.36 1100.53 677.5 1029.27 790.6 880.26 789.52 951.52 676.41 951.43 676.27 951.43 676.27 880 789.65 1029.36 790.74 1100.8 677.36 1100.45 677.36"
			 style="fill:#471d2d;stroke:#000;stroke-miterlimit:10;stroke-width:0.5px" />
			<polygon points="884.51 566.11 951.52 676.41 880.26 789.52 813.25 679.21 884.51 566.11" style="fill:#471d2d;stroke:#000;stroke-miterlimit:10;stroke-width:0.5px"
			/>
			<polygon points="813.25 679.21 884.51 566.11 951.52 676.41 880.26 789.52 813.25 679.21" style="fill:#471d2d;stroke:#000;stroke-miterlimit:10;stroke-width:0.5px"
			/>
			<polygon points="962.26 680.29 1033.52 567.19 1100.53 677.5 1029.27 790.6 962.26 680.29" style="fill:#471d2d;stroke:#000;stroke-miterlimit:10;stroke-width:0.5px"
			/>
			<polygon points="813.25 679.21 962.26 680.29 1029.27 790.6 880.26 789.52 813.25 679.21" style="fill:#471d2d;stroke:#000;stroke-miterlimit:10;stroke-width:0.5px"
			/>
			<polygon points="962.26 680.29 1029.27 790.6 880.26 789.52 813.25 679.21 962.26 680.29" style="fill:#471d2d;stroke:#000;stroke-miterlimit:10;stroke-width:0.5px"
			/>
			<polygon points="1033.52 567.19 1100.53 677.5 1029.27 790.6 962.26 680.29 1033.52 567.19" style="fill:#471d2d;stroke:#000;stroke-miterlimit:10;stroke-width:0.5px"
			/>
			<path d="M884.15,562.72l149.37,1.09L962.08,677.19,812.72,676.1ZM962,677.05,1033.25,564l-149-1.09L813,676l149,1.09" transform="translate(0.27 3.25)"
			 style="fill:#471d2d;stroke:#000;stroke-miterlimit:10;stroke-width:0.5px" />
			<polygon points="1033.52 567.19 962.26 680.29 813.25 679.21 884.51 566.11 1033.52 567.19" style="fill:#471d2d;stroke:#000;stroke-miterlimit:10;stroke-width:0.5px"
			/>
			<polygon points="1033.79 567.05 1100.8 677.36 1029.36 790.74 962.35 680.43 1033.79 567.05" style="fill:#471d2d;stroke:#000;stroke-miterlimit:10;stroke-width:0.5px"
			/>
			<polygon points="962.35 680.43 1029.36 790.74 880 789.65 812.99 679.34 962.35 680.43" style="fill:#471d2d;stroke:#000;stroke-miterlimit:10;stroke-width:0.5px"
			/>
		</g>
		<g style="opacity:0.8300000000000001;mix-blend-mode:multiply;isolation:isolate">
			<polygon points="528.49 680.58 599.92 567.2 666.94 677.5 595.5 790.88 528.49 680.58" style="fill:#fac551;stroke:#000;stroke-miterlimit:10;stroke-width:0.5px"
			/>
			<polygon points="599.92 567.2 749.29 568.28 816.3 678.59 666.94 677.5 599.92 567.2" style="fill:#fac551;stroke:#000;stroke-miterlimit:10;stroke-width:0.5px"
			/>
			<polygon points="749.02 568.42 816.03 678.73 667.02 677.64 600.01 567.34 749.02 568.42" style="fill:#fac551;stroke:#000;stroke-miterlimit:10;stroke-width:0.5px"
			/>
			<polygon points="600.01 567.34 749.02 568.42 816.03 678.73 667.02 677.64 600.01 567.34" style="fill:#fac551;stroke:#000;stroke-miterlimit:10;stroke-width:0.5px"
			/>
			<polygon points="816.03 678.73 744.77 791.84 595.76 790.75 667.02 677.64 816.03 678.73" style="fill:#fac551;stroke:#000;stroke-miterlimit:10;stroke-width:0.5px"
			/>
			<polygon points="815.95 678.59 816.03 678.73 744.77 791.84 595.76 790.75 667.02 677.64 666.94 677.5 666.94 677.5 595.5 790.88 744.87 791.97 816.3 678.59 815.95 678.59"
			 style="fill:#fac551;stroke:#000;stroke-miterlimit:10;stroke-width:0.5px" />
			<polygon points="600.01 567.34 667.02 677.64 595.76 790.75 528.75 680.44 600.01 567.34" style="fill:#fac551;stroke:#000;stroke-miterlimit:10;stroke-width:0.5px"
			/>
			<polygon points="528.75 680.44 600.01 567.34 667.02 677.64 595.76 790.75 528.75 680.44" style="fill:#fac551;stroke:#000;stroke-miterlimit:10;stroke-width:0.5px"
			/>
			<polygon points="677.76 681.53 749.02 568.42 816.03 678.73 744.77 791.84 677.76 681.53" style="fill:#fac551;stroke:#000;stroke-miterlimit:10;stroke-width:0.5px"
			/>
			<polygon points="528.75 680.44 677.76 681.53 744.77 791.84 595.76 790.75 528.75 680.44" style="fill:#fac551;stroke:#000;stroke-miterlimit:10;stroke-width:0.5px"
			/>
			<polygon points="677.76 681.53 744.77 791.84 595.76 790.75 528.75 680.44 677.76 681.53" style="fill:#fac551;stroke:#000;stroke-miterlimit:10;stroke-width:0.5px"
			/>
			<polygon points="749.02 568.42 816.03 678.73 744.77 791.84 677.76 681.53 749.02 568.42" style="fill:#fac551;stroke:#000;stroke-miterlimit:10;stroke-width:0.5px"
			/>
			<path d="M599.66,564,749,565,677.59,678.42l-149.37-1.09Zm77.83,114.33,71.27-113.1-149-1.09-71.26,113.1,149,1.09" transform="translate(0.27 3.25)"
			 style="fill:#fac551;stroke:#000;stroke-miterlimit:10;stroke-width:0.5px" />
			<polygon points="749.02 568.42 677.76 681.53 528.75 680.44 600.01 567.34 749.02 568.42" style="fill:#fac551;stroke:#000;stroke-miterlimit:10;stroke-width:0.5px"
			/>
			<polygon points="749.29 568.28 816.3 678.59 744.87 791.97 677.85 681.66 749.29 568.28" style="fill:#fac551;stroke:#000;stroke-miterlimit:10;stroke-width:0.5px"
			/>
			<polygon points="651.24 712.11 718.25 822.42 568.88 821.33 501.87 711.02 651.24 712.11" style="fill:#fac551;stroke:#000;stroke-miterlimit:10;stroke-width:0.5px"
			/>
		</g>
		<g style="opacity:0.8300000000000001;mix-blend-mode:multiply;isolation:isolate">
			<polygon points="309.83 793.9 381.26 680.52 448.28 790.83 376.84 904.21 309.83 793.9" style="fill:#4a6b6d;stroke:#000;stroke-miterlimit:10;stroke-width:0.5px"
			/>
			<polygon points="381.26 680.52 530.63 681.61 597.64 791.91 448.28 790.83 381.26 680.52" style="fill:#4a6b6d;stroke:#000;stroke-miterlimit:10;stroke-width:0.5px"
			/>
			<polygon points="530.36 681.75 597.38 792.05 448.36 790.97 381.35 680.66 530.36 681.75" style="fill:#4a6b6d;stroke:#000;stroke-miterlimit:10;stroke-width:0.5px"
			/>
			<polygon points="381.35 680.66 530.36 681.75 597.38 792.05 448.36 790.97 381.35 680.66" style="fill:#4a6b6d;stroke:#000;stroke-miterlimit:10;stroke-width:0.5px"
			/>
			<polygon points="597.38 792.05 526.11 905.16 377.1 904.07 448.36 790.97 597.38 792.05" style="fill:#4a6b6d;stroke:#000;stroke-miterlimit:10;stroke-width:0.5px"
			/>
			<polygon points="597.29 791.91 597.37 792.05 526.11 905.16 377.1 904.07 448.36 790.97 448.28 790.83 448.28 790.83 376.84 904.21 526.2 905.29 597.64 791.91 597.29 791.91"
			 style="fill:#4a6b6d;stroke:#000;stroke-miterlimit:10;stroke-width:0.5px" />
			<polygon points="381.35 680.66 448.36 790.97 377.1 904.07 310.09 793.76 381.35 680.66" style="fill:#4a6b6d;stroke:#000;stroke-miterlimit:10;stroke-width:0.5px"
			/>
			<polygon points="310.09 793.76 381.35 680.66 448.36 790.97 377.1 904.07 310.09 793.76" style="fill:#4a6b6d;stroke:#000;stroke-miterlimit:10;stroke-width:0.5px"
			/>
			<polygon points="459.1 794.85 530.36 681.75 597.38 792.05 526.11 905.16 459.1 794.85" style="fill:#4a6b6d;stroke:#000;stroke-miterlimit:10;stroke-width:0.5px"
			/>
			<polygon points="310.09 793.76 459.1 794.85 526.11 905.16 377.1 904.07 310.09 793.76" style="fill:#4a6b6d;stroke:#000;stroke-miterlimit:10;stroke-width:0.5px"
			/>
			<polygon points="459.1 794.85 526.11 905.16 377.1 904.07 310.09 793.76 459.1 794.85" style="fill:#4a6b6d;stroke:#000;stroke-miterlimit:10;stroke-width:0.5px"
			/>
			<polygon points="530.36 681.75 597.38 792.05 526.11 905.16 459.1 794.85 530.36 681.75" style="fill:#4a6b6d;stroke:#000;stroke-miterlimit:10;stroke-width:0.5px"
			/>
			<path d="M381,677.27l149.36,1.09L458.92,791.74l-149.36-1.09ZM458.83,791.6l71.26-113.1-149-1.09L309.82,790.52l149,1.08"
			 transform="translate(0.27 3.25)" style="fill:#4a6b6d;stroke:#000;stroke-miterlimit:10;stroke-width:0.5px" />
			<polygon points="530.36 681.75 459.1 794.85 310.09 793.76 381.35 680.66 530.36 681.75" style="fill:#4a6b6d;stroke:#000;stroke-miterlimit:10;stroke-width:0.5px"
			/>
			<polygon points="530.63 681.61 597.64 791.91 526.2 905.29 459.19 794.99 530.63 681.61" style="fill:#4a6b6d;stroke:#000;stroke-miterlimit:10;stroke-width:0.5px"
			/>
			<polygon points="429.8 878.24 496.81 988.55 347.45 987.46 280.43 877.15 429.8 878.24" style="fill:#4a6b6d;stroke:#000;stroke-miterlimit:10;stroke-width:0.5px"
			/>
		</g>
		<g style="opacity:0.8300000000000001;mix-blend-mode:multiply;isolation:isolate">
			<polygon points="242.81 683.59 314.25 570.21 381.26 680.52 309.83 793.9 242.81 683.59" style="fill:#471d2d;stroke:#000;stroke-miterlimit:10;stroke-width:0.5px"
			/>
			<polygon points="314.25 570.21 463.62 571.3 530.63 681.61 381.26 680.52 314.25 570.21" style="fill:#471d2d;stroke:#000;stroke-miterlimit:10;stroke-width:0.5px"
			/>
			<polygon points="463.35 571.44 530.36 681.75 381.35 680.66 314.34 570.35 463.35 571.44" style="fill:#471d2d;stroke:#000;stroke-miterlimit:10;stroke-width:0.5px"
			/>
			<polygon points="314.34 570.35 463.35 571.44 530.36 681.75 381.35 680.66 314.34 570.35" style="fill:#471d2d;stroke:#000;stroke-miterlimit:10;stroke-width:0.5px"
			/>
			<polygon points="530.36 681.75 459.1 794.85 310.09 793.76 381.35 680.66 530.36 681.75" style="fill:#471d2d;stroke:#000;stroke-miterlimit:10;stroke-width:0.5px"
			/>
			<polygon points="530.27 681.6 530.36 681.75 459.1 794.85 310.09 793.76 381.35 680.66 381.26 680.52 381.26 680.52 309.83 793.9 459.19 794.99 530.63 681.61 530.27 681.6"
			 style="fill:#471d2d;stroke:#000;stroke-miterlimit:10;stroke-width:0.5px" />
			<polygon points="314.34 570.35 381.35 680.66 310.09 793.76 243.08 683.45 314.34 570.35" style="fill:#471d2d;stroke:#000;stroke-miterlimit:10;stroke-width:0.5px"
			/>
			<polygon points="243.08 683.45 314.34 570.35 381.35 680.66 310.09 793.76 243.08 683.45" style="fill:#471d2d;stroke:#000;stroke-miterlimit:10;stroke-width:0.5px"
			/>
			<polygon points="392.09 684.54 463.35 571.44 530.36 681.75 459.1 794.85 392.09 684.54" style="fill:#471d2d;stroke:#000;stroke-miterlimit:10;stroke-width:0.5px"
			/>
			<polygon points="243.08 683.45 392.09 684.54 459.1 794.85 310.09 793.76 243.08 683.45" style="fill:#471d2d;stroke:#000;stroke-miterlimit:10;stroke-width:0.5px"
			/>
			<polygon points="392.09 684.54 459.1 794.85 310.09 793.76 243.08 683.45 392.09 684.54" style="fill:#471d2d;stroke:#000;stroke-miterlimit:10;stroke-width:0.5px"
			/>
			<polygon points="463.35 571.44 530.36 681.75 459.1 794.85 392.09 684.54 463.35 571.44" style="fill:#471d2d;stroke:#000;stroke-miterlimit:10;stroke-width:0.5px"
			/>
			<path d="M314,567l149.37,1.09L391.91,681.43l-149.36-1.09Zm77.84,114.33,71.26-113.1-149-1.08-71.26,113.1,149,1.08" transform="translate(0.27 3.25)"
			 style="fill:#471d2d;stroke:#000;stroke-miterlimit:10;stroke-width:0.5px" />
			<polygon points="430.63 541.99 359.37 655.09 210.36 654 281.62 540.9 430.63 541.99" style="fill:#471d2d;stroke:#000;stroke-miterlimit:10;stroke-width:0.5px"
			/>
			<polygon points="463.62 571.3 530.63 681.61 459.19 794.99 392.18 684.68 463.62 571.3" style="fill:#471d2d;stroke:#000;stroke-miterlimit:10;stroke-width:0.5px"
			/>
			<polygon points="373.16 720.09 440.18 830.39 290.81 829.3 223.8 719 373.16 720.09" style="fill:#471d2d;stroke:#000;stroke-miterlimit:10;stroke-width:0.5px"
			/>
		</g>
		<g style="opacity:0.8300000000000001;mix-blend-mode:multiply;isolation:isolate">
			<polygon points="745.97 569.03 817.41 455.65 884.42 565.96 812.99 679.34 745.97 569.03" style="fill:#4a6b6d;stroke:#000;stroke-miterlimit:10;stroke-width:0.5px"
			/>
			<polygon points="817.41 455.65 966.77 456.74 1033.79 567.05 884.42 565.96 817.41 455.65" style="fill:#4a6b6d;stroke:#000;stroke-miterlimit:10;stroke-width:0.5px"
			/>
			<polygon points="966.51 456.88 1033.52 567.19 884.51 566.11 817.5 455.8 966.51 456.88" style="fill:#4a6b6d;stroke:#000;stroke-miterlimit:10;stroke-width:0.5px"
			/>
			<polygon points="817.5 455.8 966.51 456.88 1033.52 567.19 884.51 566.11 817.5 455.8" style="fill:#4a6b6d;stroke:#000;stroke-miterlimit:10;stroke-width:0.5px"
			/>
			<polygon points="1033.52 567.19 962.26 680.29 813.25 679.21 884.51 566.11 1033.52 567.19" style="fill:#4a6b6d;stroke:#000;stroke-miterlimit:10;stroke-width:0.5px"
			/>
			<polygon points="1033.43 567.05 1033.52 567.19 962.26 680.29 813.25 679.21 884.51 566.11 884.42 565.96 884.42 565.96 812.99 679.34 962.35 680.43 1033.79 567.05 1033.43 567.05"
			 style="fill:#4a6b6d;stroke:#000;stroke-miterlimit:10;stroke-width:0.5px" />
			<polygon points="817.5 455.8 884.51 566.11 813.25 679.21 746.24 568.9 817.5 455.8" style="fill:#4a6b6d;stroke:#000;stroke-miterlimit:10;stroke-width:0.5px"
			/>
			<polygon points="746.24 568.9 817.5 455.8 884.51 566.11 813.25 679.21 746.24 568.9" style="fill:#4a6b6d;stroke:#000;stroke-miterlimit:10;stroke-width:0.5px"
			/>
			<polygon points="895.25 569.99 966.51 456.88 1033.52 567.19 962.26 680.29 895.25 569.99" style="fill:#4a6b6d;stroke:#000;stroke-miterlimit:10;stroke-width:0.5px"
			/>
			<polygon points="746.24 568.9 895.25 569.99 962.26 680.29 813.25 679.21 746.24 568.9" style="fill:#4a6b6d;stroke:#000;stroke-miterlimit:10;stroke-width:0.5px"
			/>
			<polygon points="895.25 569.99 962.26 680.29 813.25 679.21 746.24 568.9 895.25 569.99" style="fill:#4a6b6d;stroke:#000;stroke-miterlimit:10;stroke-width:0.5px"
			/>
			<polygon points="966.51 456.88 1033.52 567.19 962.26 680.29 895.25 569.99 966.51 456.88" style="fill:#4a6b6d;stroke:#000;stroke-miterlimit:10;stroke-width:0.5px"
			/>
			<path d="M817.14,452.41l149.37,1.09L895.07,566.88,745.7,565.79ZM895,566.74l71.26-113.1-149-1.09L746,565.65l149,1.09" transform="translate(0.27 3.25)"
			 style="fill:#4a6b6d;stroke:#000;stroke-miterlimit:10;stroke-width:0.5px" />
			<polygon points="939.47 408.44 868.21 521.55 719.2 520.46 790.46 407.36 939.47 408.44" style="fill:#4a6b6d;stroke:#000;stroke-miterlimit:10;stroke-width:0.5px"
			/>
			<polygon points="966.77 456.74 1033.79 567.05 962.35 680.43 895.34 570.12 966.77 456.74" style="fill:#4a6b6d;stroke:#000;stroke-miterlimit:10;stroke-width:0.5px"
			/>
			<polygon points="895.34 570.12 962.35 680.43 812.99 679.34 745.97 569.03 895.34 570.12" style="fill:#4a6b6d;stroke:#000;stroke-miterlimit:10;stroke-width:0.5px"
			/>
		</g>
		<g style="opacity:0.8300000000000001;mix-blend-mode:multiply;isolation:isolate">
			<polygon points="1243.97 671.7 1315.41 558.32 1382.42 668.63 1310.98 782.01 1243.97 671.7" style="fill:#a44a3f;stroke:#000;stroke-miterlimit:10;stroke-width:0.5px"
			/>
			<polygon points="1315.41 558.32 1464.77 559.41 1531.79 669.72 1382.42 668.63 1315.41 558.32" style="fill:#a44a3f;stroke:#000;stroke-miterlimit:10;stroke-width:0.5px"
			/>
			<polygon points="1464.51 559.55 1531.52 669.86 1382.51 668.77 1315.5 558.46 1464.51 559.55" style="fill:#a44a3f;stroke:#000;stroke-miterlimit:10;stroke-width:0.5px"
			/>
			<polygon points="1315.5 558.46 1464.51 559.55 1531.52 669.86 1382.51 668.77 1315.5 558.46" style="fill:#a44a3f;stroke:#000;stroke-miterlimit:10;stroke-width:0.5px"
			/>
			<polygon points="1531.52 669.86 1460.26 782.96 1311.25 781.87 1382.51 668.77 1531.52 669.86" style="fill:#a44a3f;stroke:#000;stroke-miterlimit:10;stroke-width:0.5px"
			/>
			<polygon points="1531.43 669.71 1531.52 669.86 1460.26 782.96 1311.25 781.87 1382.51 668.77 1382.42 668.63 1382.42 668.63 1310.98 782.01 1460.35 783.1 1531.79 669.72 1531.43 669.71"
			 style="fill:#a44a3f;stroke:#000;stroke-miterlimit:10;stroke-width:0.5px" />
			<polygon points="1315.5 558.46 1382.51 668.77 1311.25 781.87 1244.23 671.57 1315.5 558.46" style="fill:#a44a3f;stroke:#000;stroke-miterlimit:10;stroke-width:0.5px"
			/>
			<polygon points="1244.23 671.57 1315.5 558.46 1382.51 668.77 1311.25 781.87 1244.23 671.57" style="fill:#a44a3f;stroke:#000;stroke-miterlimit:10;stroke-width:0.5px"
			/>
			<polygon points="1393.24 672.65 1464.51 559.55 1531.52 669.86 1460.26 782.96 1393.24 672.65" style="fill:#a44a3f;stroke:#000;stroke-miterlimit:10;stroke-width:0.5px"
			/>
			<polygon points="1244.23 671.57 1393.24 672.65 1460.26 782.96 1311.25 781.87 1244.23 671.57" style="fill:#a44a3f;stroke:#000;stroke-miterlimit:10;stroke-width:0.5px"
			/>
			<polygon points="1393.24 672.65 1460.26 782.96 1311.25 781.87 1244.23 671.57 1393.24 672.65" style="fill:#a44a3f;stroke:#000;stroke-miterlimit:10;stroke-width:0.5px"
			/>
			<polygon points="1464.51 559.55 1531.52 669.86 1460.26 782.96 1393.24 672.65 1464.51 559.55" style="fill:#a44a3f;stroke:#000;stroke-miterlimit:10;stroke-width:0.5px"
			/>
			<path d="M1315.14,555.07l149.37,1.09-71.44,113.38-149.37-1.09ZM1393,669.41l71.26-113.11-149-1.08L1244,668.32l149,1.09"
			 transform="translate(0.27 3.25)" style="fill:#a44a3f;stroke:#000;stroke-miterlimit:10;stroke-width:0.5px" />
			<polygon points="1464.51 559.55 1393.24 672.65 1244.23 671.57 1315.5 558.46 1464.51 559.55" style="fill:#a44a3f;stroke:#000;stroke-miterlimit:10;stroke-width:0.5px"
			/>
			<polygon points="1511.29 555.72 1578.3 666.03 1506.86 779.41 1439.85 669.1 1511.29 555.72" style="fill:#a44a3f;stroke:#000;stroke-miterlimit:10;stroke-width:0.5px"
			/>
			<polygon points="1393.34 672.79 1460.35 783.1 1310.98 782.01 1243.97 671.7 1393.34 672.79" style="fill:#a44a3f;stroke:#000;stroke-miterlimit:10;stroke-width:0.5px"
			/>
		</g>
		<g style="opacity:0.8300000000000001;mix-blend-mode:multiply;isolation:isolate">
			<polygon points="1172.05 784.67 1243.49 671.29 1310.5 781.6 1239.06 894.98 1172.05 784.67" style="fill:#fac551;stroke:#000;stroke-miterlimit:10;stroke-width:0.5px"
			/>
			<polygon points="1243.49 671.29 1392.85 672.38 1459.87 782.69 1310.5 781.6 1243.49 671.29" style="fill:#fac551;stroke:#000;stroke-miterlimit:10;stroke-width:0.5px"
			/>
			<polygon points="1392.59 672.52 1459.6 782.83 1310.59 781.74 1243.58 671.44 1392.59 672.52" style="fill:#fac551;stroke:#000;stroke-miterlimit:10;stroke-width:0.5px"
			/>
			<polygon points="1243.58 671.44 1392.59 672.52 1459.6 782.83 1310.59 781.74 1243.58 671.44" style="fill:#fac551;stroke:#000;stroke-miterlimit:10;stroke-width:0.5px"
			/>
			<polygon points="1459.6 782.83 1388.34 895.93 1239.33 894.85 1310.59 781.74 1459.6 782.83" style="fill:#fac551;stroke:#000;stroke-miterlimit:10;stroke-width:0.5px"
			/>
			<polygon points="1459.51 782.69 1459.6 782.83 1388.34 895.93 1239.33 894.85 1310.59 781.74 1310.5 781.6 1310.5 781.6 1239.06 894.98 1388.43 896.07 1459.87 782.69 1459.51 782.69"
			 style="fill:#fac551;stroke:#000;stroke-miterlimit:10;stroke-width:0.5px" />
			<polygon points="1243.58 671.44 1310.59 781.74 1239.33 894.85 1172.32 784.54 1243.58 671.44" style="fill:#fac551;stroke:#000;stroke-miterlimit:10;stroke-width:0.5px"
			/>
			<polygon points="1172.32 784.54 1243.58 671.44 1310.59 781.74 1239.33 894.85 1172.32 784.54" style="fill:#fac551;stroke:#000;stroke-miterlimit:10;stroke-width:0.5px"
			/>
			<polygon points="1321.33 785.63 1392.59 672.52 1459.6 782.83 1388.34 895.93 1321.33 785.63" style="fill:#fac551;stroke:#000;stroke-miterlimit:10;stroke-width:0.5px"
			/>
			<polygon points="1172.32 784.54 1321.33 785.63 1388.34 895.93 1239.33 894.85 1172.32 784.54" style="fill:#fac551;stroke:#000;stroke-miterlimit:10;stroke-width:0.5px"
			/>
			<polygon points="1321.33 785.63 1388.34 895.93 1239.33 894.85 1172.32 784.54 1321.33 785.63" style="fill:#fac551;stroke:#000;stroke-miterlimit:10;stroke-width:0.5px"
			/>
			<polygon points="1392.59 672.52 1459.6 782.83 1388.34 895.93 1321.33 785.63 1392.59 672.52" style="fill:#fac551;stroke:#000;stroke-miterlimit:10;stroke-width:0.5px"
			/>
			<path d="M1243.22,668.05l149.37,1.09-71.44,113.38-149.37-1.09Zm77.84,114.33,71.26-113.1-149-1.09-71.26,113.1,149,1.09"
			 transform="translate(0.27 3.25)" style="fill:#fac551;stroke:#000;stroke-miterlimit:10;stroke-width:0.5px" />
			<polygon points="1392.59 672.52 1321.33 785.63 1172.32 784.54 1243.58 671.44 1392.59 672.52" style="fill:#fac551;stroke:#000;stroke-miterlimit:10;stroke-width:0.5px"
			/>
			<polygon points="1392.85 672.38 1459.87 782.69 1388.43 896.07 1321.42 785.76 1392.85 672.38" style="fill:#fac551;stroke:#000;stroke-miterlimit:10;stroke-width:0.5px"
			/>
			<polygon points="1321.42 785.76 1388.43 896.07 1239.06 894.98 1172.05 784.67 1321.42 785.76" style="fill:#fac551;stroke:#000;stroke-miterlimit:10;stroke-width:0.5px"
			/>
		</g>
		<g style="opacity:0.8;mix-blend-mode:multiply;isolation:isolate">
			<g style="opacity:0.8300000000000001;mix-blend-mode:multiply">
				<polygon points="1028.71 558.23 1100.14 444.85 1167.16 555.15 1095.72 668.53 1028.71 558.23" style="fill:#4a6b6d;stroke:#000;stroke-miterlimit:10;stroke-width:0.5px"
				/>
			</g>
			<g style="opacity:0.8300000000000001;mix-blend-mode:multiply">
				<polygon points="1100.14 444.85 1249.51 445.94 1316.52 556.24 1167.16 555.15 1100.14 444.85" style="fill:#4a6b6d;stroke:#000;stroke-miterlimit:10;stroke-width:0.5px"
				/>
			</g>
			<g style="opacity:0.8300000000000001;mix-blend-mode:multiply">
				<polygon points="1249.24 446.08 1316.26 556.38 1167.25 555.3 1100.23 444.99 1249.24 446.08" style="fill:#4a6b6d;stroke:#000;stroke-miterlimit:10;stroke-width:0.5px"
				/>
			</g>
			<g style="opacity:0.8300000000000001;mix-blend-mode:multiply">
				<polygon points="1100.23 444.99 1249.24 446.08 1316.26 556.38 1167.25 555.3 1100.23 444.99" style="fill:#4a6b6d;stroke:#000;stroke-miterlimit:10;stroke-width:0.5px"
				/>
			</g>
			<g style="opacity:0.8300000000000001;mix-blend-mode:multiply">
				<polygon points="1316.26 556.38 1244.99 669.49 1095.98 668.4 1167.25 555.3 1316.26 556.38" style="fill:#4a6b6d;stroke:#000;stroke-miterlimit:10;stroke-width:0.5px"
				/>
			</g>
			<g style="opacity:0.8300000000000001;mix-blend-mode:multiply">
				<polygon points="1316.17 556.24 1316.26 556.38 1244.99 669.49 1095.98 668.4 1167.25 555.3 1167.16 555.15 1167.16 555.15 1095.72 668.53 1245.09 669.62 1316.52 556.24 1316.17 556.24"
				 style="fill:#4a6b6d;stroke:#000;stroke-miterlimit:10;stroke-width:0.5px" />
			</g>
			<g style="opacity:0.8300000000000001;mix-blend-mode:multiply">
				<polygon points="1100.23 444.99 1167.25 555.3 1095.98 668.4 1028.97 558.09 1100.23 444.99" style="fill:#4a6b6d;stroke:#000;stroke-miterlimit:10;stroke-width:0.5px"
				/>
			</g>
			<g style="opacity:0.8300000000000001;mix-blend-mode:multiply">
				<polygon points="1028.97 558.09 1100.23 444.99 1167.25 555.3 1095.98 668.4 1028.97 558.09" style="fill:#4a6b6d;stroke:#000;stroke-miterlimit:10;stroke-width:0.5px"
				/>
			</g>
			<g style="opacity:0.8300000000000001;mix-blend-mode:multiply">
				<polygon points="1177.98 559.18 1249.24 446.08 1316.26 556.38 1244.99 669.49 1177.98 559.18" style="fill:#4a6b6d;stroke:#000;stroke-miterlimit:10;stroke-width:0.5px"
				/>
			</g>
			<g style="opacity:0.8300000000000001;mix-blend-mode:multiply">
				<polygon points="1028.97 558.09 1177.98 559.18 1244.99 669.49 1095.98 668.4 1028.97 558.09" style="fill:#4a6b6d;stroke:#000;stroke-miterlimit:10;stroke-width:0.5px"
				/>
			</g>
			<g style="opacity:0.8300000000000001;mix-blend-mode:multiply">
				<polygon points="1177.98 559.18 1244.99 669.49 1095.98 668.4 1028.97 558.09 1177.98 559.18" style="fill:#4a6b6d;stroke:#000;stroke-miterlimit:10;stroke-width:0.5px"
				/>
			</g>
			<g style="opacity:0.8300000000000001;mix-blend-mode:multiply">
				<polygon points="1249.24 446.08 1316.26 556.38 1244.99 669.49 1177.98 559.18 1249.24 446.08" style="fill:#4a6b6d;stroke:#000;stroke-miterlimit:10;stroke-width:0.5px"
				/>
			</g>
			<g style="opacity:0.8300000000000001;mix-blend-mode:multiply">
				<path d="M1099.88,441.6l149.36,1.09-71.43,113.38L1028.44,555Zm77.83,114.33L1249,442.83l-149-1.09L1028.7,554.85l149,1.08"
				 transform="translate(0.27 3.25)" style="fill:#4a6b6d;stroke:#000;stroke-miterlimit:10;stroke-width:0.5px" />
			</g>
			<g style="opacity:0.8300000000000001;mix-blend-mode:multiply">
				<polygon points="1249.24 446.08 1177.98 559.18 1028.97 558.09 1100.23 444.99 1249.24 446.08" style="fill:#4a6b6d;stroke:#000;stroke-miterlimit:10;stroke-width:0.5px"
				/>
			</g>
			<polygon points="1173.74 293.57 1240.75 403.88 1169.32 517.26 1102.3 406.95 1173.74 293.57" style="fill:#4a6b6d;stroke:#000;stroke-miterlimit:10;stroke-width:0.5px;opacity:0.8300000000000001;mix-blend-mode:multiply"
			/>
			<g style="opacity:0.8300000000000001;mix-blend-mode:multiply">
				<polygon points="1143.2 608.69 1210.22 719 1060.85 717.91 993.84 607.6 1143.2 608.69" style="fill:#4a6b6d;stroke:#000;stroke-miterlimit:10;stroke-width:0.5px"
				/>
			</g>
		</g>
		<g style="opacity:0.8300000000000001;mix-blend-mode:multiply;isolation:isolate">
			<polygon points="527.1 905.78 598.53 792.4 665.55 902.71 594.11 1016.09 527.1 905.78" style="fill:#a44a3f;stroke:#000;stroke-miterlimit:10;stroke-width:0.5px"
			/>
			<polygon points="598.53 792.4 747.9 793.49 814.91 903.8 665.55 902.71 598.53 792.4" style="fill:#a44a3f;stroke:#000;stroke-miterlimit:10;stroke-width:0.5px"
			/>
			<polygon points="747.63 793.63 814.65 903.94 665.64 902.85 598.62 792.55 747.63 793.63" style="fill:#a44a3f;stroke:#000;stroke-miterlimit:10;stroke-width:0.5px"
			/>
			<polygon points="598.62 792.55 747.63 793.63 814.65 903.94 665.64 902.85 598.62 792.55" style="fill:#a44a3f;stroke:#000;stroke-miterlimit:10;stroke-width:0.5px"
			/>
			<polygon points="814.65 903.94 743.38 1017.04 594.37 1015.96 665.64 902.85 814.65 903.94" style="fill:#a44a3f;stroke:#000;stroke-miterlimit:10;stroke-width:0.5px"
			/>
			<polygon points="814.56 903.8 814.65 903.94 743.38 1017.04 594.37 1015.96 665.64 902.85 665.55 902.71 665.55 902.71 594.11 1016.09 743.48 1017.18 814.91 903.8 814.56 903.8"
			 style="fill:#a44a3f;stroke:#000;stroke-miterlimit:10;stroke-width:0.5px" />
			<polygon points="598.62 792.55 665.64 902.85 594.37 1015.96 527.36 905.65 598.62 792.55" style="fill:#a44a3f;stroke:#000;stroke-miterlimit:10;stroke-width:0.5px"
			/>
			<polygon points="527.36 905.65 598.62 792.55 665.64 902.85 594.37 1015.96 527.36 905.65" style="fill:#a44a3f;stroke:#000;stroke-miterlimit:10;stroke-width:0.5px"
			/>
			<polygon points="676.37 906.74 747.63 793.63 814.65 903.94 743.38 1017.04 676.37 906.74" style="fill:#a44a3f;stroke:#000;stroke-miterlimit:10;stroke-width:0.5px"
			/>
			<polygon points="527.36 905.65 676.37 906.74 743.38 1017.04 594.37 1015.96 527.36 905.65" style="fill:#a44a3f;stroke:#000;stroke-miterlimit:10;stroke-width:0.5px"
			/>
			<g style="mix-blend-mode:multiply">
				<polygon points="676.37 906.74 743.38 1017.04 594.37 1015.96 527.36 905.65 676.37 906.74" style="fill:#a44a3f;stroke:#000;stroke-miterlimit:10;stroke-width:0.5px"
				/>
			</g>
			<polygon points="747.63 793.63 814.65 903.94 743.38 1017.04 676.37 906.74 747.63 793.63" style="fill:#a44a3f;stroke:#000;stroke-miterlimit:10;stroke-width:0.5px"
			/>
			<path d="M598.27,789.16l149.36,1.09L676.2,903.63l-149.37-1.09ZM676.1,903.49l71.27-113.1-149-1.09L527.09,902.4l149,1.09"
			 transform="translate(0.27 3.25)" style="fill:#a44a3f;stroke:#000;stroke-miterlimit:10;stroke-width:0.5px" />
			<polygon points="747.63 793.63 676.37 906.74 527.36 905.65 598.62 792.55 747.63 793.63" style="fill:#a44a3f;stroke:#000;stroke-miterlimit:10;stroke-width:0.5px"
			/>
			<polygon points="809.39 794.34 876.4 904.65 804.96 1018.03 737.95 907.72 809.39 794.34" style="fill:#a44a3f;stroke:#000;stroke-miterlimit:10;stroke-width:0.5px;mix-blend-mode:multiply"
			/>
			<polygon points="575.9 906.9 642.91 1017.21 493.55 1016.12 426.54 905.81 575.9 906.9" style="fill:#a44a3f;stroke:#000;stroke-miterlimit:10;stroke-width:0.5px"
			/>
		</g>
		<g style="opacity:0.8300000000000001;mix-blend-mode:multiply;isolation:isolate">
			<polygon points="1098.77 900.91 1170.21 787.53 1237.22 897.84 1165.79 1011.22 1098.77 900.91" style="fill:#4a6b6d;stroke:#000;stroke-miterlimit:10;stroke-width:0.5px"
			/>
			<polygon points="1170.21 787.53 1319.58 788.62 1386.59 898.93 1237.22 897.84 1170.21 787.53" style="fill:#4a6b6d;stroke:#000;stroke-miterlimit:10;stroke-width:0.5px"
			/>
			<polygon points="1319.31 788.76 1386.32 899.07 1237.31 897.98 1170.3 787.67 1319.31 788.76" style="fill:#4a6b6d;stroke:#000;stroke-miterlimit:10;stroke-width:0.5px"
			/>
			<polygon points="1170.3 787.67 1319.31 788.76 1386.32 899.07 1237.31 897.98 1170.3 787.67" style="fill:#4a6b6d;stroke:#000;stroke-miterlimit:10;stroke-width:0.5px"
			/>
			<polygon points="1386.32 899.07 1315.06 1012.17 1166.05 1011.08 1237.31 897.98 1386.32 899.07" style="fill:#4a6b6d;stroke:#000;stroke-miterlimit:10;stroke-width:0.5px"
			/>
			<polygon points="1386.23 898.92 1386.32 899.07 1315.06 1012.17 1166.05 1011.08 1237.31 897.98 1237.22 897.84 1237.22 897.84 1165.79 1011.22 1315.15 1012.31 1386.59 898.93 1386.23 898.92"
			 style="fill:#4a6b6d;stroke:#000;stroke-miterlimit:10;stroke-width:0.5px" />
			<polygon points="1170.3 787.67 1237.31 897.98 1166.05 1011.08 1099.04 900.78 1170.3 787.67" style="fill:#4a6b6d;stroke:#000;stroke-miterlimit:10;stroke-width:0.5px"
			/>
			<polygon points="1099.04 900.78 1170.3 787.67 1237.31 897.98 1166.05 1011.08 1099.04 900.78" style="fill:#4a6b6d;stroke:#000;stroke-miterlimit:10;stroke-width:0.5px"
			/>
			<polygon points="1248.05 901.86 1319.31 788.76 1386.32 899.07 1315.06 1012.17 1248.05 901.86" style="fill:#4a6b6d;stroke:#000;stroke-miterlimit:10;stroke-width:0.5px"
			/>
			<polygon points="1099.04 900.78 1248.05 901.86 1315.06 1012.17 1166.05 1011.08 1099.04 900.78" style="fill:#4a6b6d;stroke:#000;stroke-miterlimit:10;stroke-width:0.5px"
			/>
			<polygon points="1248.05 901.86 1315.06 1012.17 1166.05 1011.08 1099.04 900.78 1248.05 901.86" style="fill:#4a6b6d;stroke:#000;stroke-miterlimit:10;stroke-width:0.5px"
			/>
			<polygon points="1319.31 788.76 1386.32 899.07 1315.06 1012.17 1248.05 901.86 1319.31 788.76" style="fill:#4a6b6d;stroke:#000;stroke-miterlimit:10;stroke-width:0.5px"
			/>
			<path d="M1169.94,784.28l149.37,1.09-71.44,113.38-149.36-1.09Zm77.84,114.34L1319,785.51l-149-1.08-71.26,113.1,149,1.09"
			 transform="translate(0.27 3.25)" style="fill:#4a6b6d;stroke:#000;stroke-miterlimit:10;stroke-width:0.5px" />
			<polygon points="1319.31 788.76 1248.05 901.86 1099.04 900.78 1170.3 787.67 1319.31 788.76" style="fill:#4a6b6d;stroke:#000;stroke-miterlimit:10;stroke-width:0.5px"
			/>
			<polygon points="1319.58 788.62 1386.59 898.93 1315.15 1012.31 1248.14 902 1319.58 788.62" style="fill:#4a6b6d;stroke:#000;stroke-miterlimit:10;stroke-width:0.5px"
			/>
			<polygon points="1248.14 902 1315.15 1012.31 1165.79 1011.22 1098.77 900.91 1248.14 902" style="fill:#4a6b6d;stroke:#000;stroke-miterlimit:10;stroke-width:0.5px"
			/>
		</g>
		<g style="opacity:0.26;mix-blend-mode:multiply;isolation:isolate">
			<polygon points="374.96 525 446.4 411.62 513.41 521.92 441.98 635.3 374.96 525" style="fill:none;stroke:#000;stroke-miterlimit:10;stroke-width:0.5px"
			/>
			<polygon points="446.4 411.62 595.76 412.7 662.78 523.01 513.41 521.92 446.4 411.62" style="fill:none;stroke:#000;stroke-miterlimit:10;stroke-width:0.5px"
			/>
			<polygon points="595.5 412.85 662.51 523.15 513.5 522.07 446.49 411.76 595.5 412.85" style="fill:none;stroke:#000;stroke-miterlimit:10;stroke-width:0.5px"
			/>
			<polygon points="446.49 411.76 595.5 412.85 662.51 523.15 513.5 522.07 446.49 411.76" style="fill:none;stroke:#000;stroke-miterlimit:10;stroke-width:0.5px"
			/>
			<polygon points="662.51 523.15 591.25 636.26 442.24 635.17 513.5 522.07 662.51 523.15" style="fill:none;stroke:#000;stroke-miterlimit:10;stroke-width:0.5px"
			/>
			<polygon points="662.42 523.01 662.51 523.15 591.25 636.26 442.24 635.17 513.5 522.07 513.41 521.92 513.41 521.92 441.98 635.3 591.34 636.39 662.78 523.01 662.42 523.01"
			 style="fill:none;stroke:#000;stroke-miterlimit:10;stroke-width:0.5px" />
			<polygon points="446.49 411.76 513.5 522.07 442.24 635.17 375.23 524.86 446.49 411.76" style="fill:none;stroke:#000;stroke-miterlimit:10;stroke-width:0.5px"
			/>
			<polygon points="375.23 524.86 446.49 411.76 513.5 522.07 442.24 635.17 375.23 524.86" style="fill:none;stroke:#000;stroke-miterlimit:10;stroke-width:0.5px"
			/>
			<polygon points="524.24 525.95 595.5 412.85 662.51 523.15 591.25 636.26 524.24 525.95" style="fill:none;stroke:#000;stroke-miterlimit:10;stroke-width:0.5px"
			/>
			<polygon points="375.23 524.86 524.24 525.95 591.25 636.26 442.24 635.17 375.23 524.86" style="fill:none;stroke:#000;stroke-miterlimit:10;stroke-width:0.5px"
			/>
			<polygon points="524.24 525.95 591.25 636.26 442.24 635.17 375.23 524.86 524.24 525.95" style="fill:none;stroke:#000;stroke-miterlimit:10;stroke-width:0.5px"
			/>
			<polygon points="595.5 412.85 662.51 523.15 591.25 636.26 524.24 525.95 595.5 412.85" style="fill:none;stroke:#000;stroke-miterlimit:10;stroke-width:0.5px"
			/>
			<path d="M446.13,408.37l149.37,1.09L524.06,522.84,374.7,521.75ZM524,522.7l89.3-141.77-149-1.09L375,521.62l149,1.08" transform="translate(0.27 3.25)"
			 style="fill:none;stroke:#000;stroke-miterlimit:10;stroke-width:0.5px" />
			<polygon points="595.5 412.85 524.24 525.95 331.41 527.25 402.67 414.15 595.5 412.85" style="fill:none;stroke:#000;stroke-miterlimit:10;stroke-width:0.5px"
			/>
			<polygon points="595.76 412.7 662.78 523.01 591.34 636.39 524.33 526.09 595.76 412.7" style="fill:none;stroke:#000;stroke-miterlimit:10;stroke-width:0.5px"
			/>
			<polygon points="521.75 526.09 588.76 636.39 426.38 667.07 374.96 525 521.75 526.09" style="fill:none;stroke:#000;stroke-miterlimit:10;stroke-width:0.5px"
			/>
		</g>
		<g style="opacity:0.44;mix-blend-mode:multiply;isolation:isolate">
			<polygon points="687.72 788.08 759.16 674.7 826.17 785.01 754.74 898.39 687.72 788.08" style="fill:none;stroke:#000;stroke-miterlimit:10;stroke-width:0.5px"
			/>
			<polygon points="759.16 674.7 908.53 675.79 975.54 786.1 826.17 785.01 759.16 674.7" style="fill:none;stroke:#000;stroke-miterlimit:10;stroke-width:0.5px"
			/>
			<polygon points="908.26 675.93 975.27 786.24 826.26 785.15 759.25 674.84 908.26 675.93" style="fill:none;stroke:#000;stroke-miterlimit:10;stroke-width:0.5px"
			/>
			<polygon points="759.25 674.84 908.26 675.93 975.27 786.24 826.26 785.15 759.25 674.84" style="fill:none;stroke:#000;stroke-miterlimit:10;stroke-width:0.5px"
			/>
			<polygon points="975.27 786.24 904.01 899.34 755 898.25 826.26 785.15 975.27 786.24" style="fill:none;stroke:#000;stroke-miterlimit:10;stroke-width:0.5px"
			/>
			<polygon points="975.19 786.09 975.27 786.24 904.01 899.34 755 898.25 826.26 785.15 826.17 785.01 826.17 785.01 754.74 898.39 904.1 899.48 975.54 786.1 975.19 786.09"
			 style="fill:none;stroke:#000;stroke-miterlimit:10;stroke-width:0.5px" />
			<polygon points="759.25 674.84 826.26 785.15 755 898.25 687.99 787.95 759.25 674.84" style="fill:none;stroke:#000;stroke-miterlimit:10;stroke-width:0.5px"
			/>
			<polygon points="687.99 787.95 759.25 674.84 826.26 785.15 755 898.25 687.99 787.95" style="fill:none;stroke:#000;stroke-miterlimit:10;stroke-width:0.5px"
			/>
			<polygon points="837 789.03 908.26 675.93 975.27 786.24 904.01 899.34 837 789.03" style="fill:none;stroke:#000;stroke-miterlimit:10;stroke-width:0.5px"
			/>
			<polygon points="687.99 787.95 837 789.03 904.01 899.34 755 898.25 687.99 787.95" style="fill:none;stroke:#000;stroke-miterlimit:10;stroke-width:0.5px"
			/>
			<polygon points="837 789.03 904.01 899.34 755 898.25 687.99 787.95 837 789.03" style="fill:none;stroke:#000;stroke-miterlimit:10;stroke-width:0.5px"
			/>
			<polygon points="908.26 675.93 975.27 786.24 904.01 899.34 837 789.03 908.26 675.93" style="fill:none;stroke:#000;stroke-miterlimit:10;stroke-width:0.5px"
			/>
			<path d="M758.89,671.45l149.37,1.09L836.82,785.92l-149.36-1.09Zm77.84,114.34L908,672.68,759,671.6,687.72,784.7l149,1.09"
			 transform="translate(0.27 3.25)" style="fill:none;stroke:#000;stroke-miterlimit:10;stroke-width:0.5px" />
			<polygon points="908.26 675.93 837 789.03 687.99 787.95 759.25 674.84 908.26 675.93" style="fill:none;stroke:#000;stroke-miterlimit:10;stroke-width:0.5px"
			/>
			<polygon points="908.53 675.79 1009.05 833.89 937.61 947.27 837.09 789.17 908.53 675.79" style="fill:none;stroke:#000;stroke-miterlimit:10;stroke-width:0.5px"
			/>
			<polygon points="837.09 789.17 904.1 899.48 685.14 907.95 618.13 797.64 837.09 789.17" style="fill:none;stroke:#000;stroke-miterlimit:10;stroke-width:0.5px"
			/>
		</g>
		<polygon points="755.52 261.8 835.42 396 763.98 509.38 684.14 401.83 755.52 261.8" style="fill:none;stroke:#000;stroke-miterlimit:10;stroke-width:0.5px"
		/>
		<polygon points="561.08 890.31 628.09 1000.62 556.65 1114 489.64 1003.69 561.08 890.31" style="fill:none;stroke:#000;stroke-miterlimit:10;stroke-width:0.5px"
		/>
		<polygon points="1417.29 483.16 1486.88 598.25 1420.6 702.07 1351.01 586.99 1417.29 483.16" style="fill:none;stroke:#000;stroke-miterlimit:10;stroke-width:0.5px"
		/>
		<polygon points="241.44 563.78 308.45 674.08 237.02 787.46 170.01 677.16 241.44 563.78" style="fill:none;stroke:#000;stroke-miterlimit:10;stroke-width:0.5px"
		/>
		<polygon points="1124.26 850.94 1191.27 961.25 1119.83 1074.63 1052.82 964.32 1124.26 850.94" style="fill:none;stroke:#000;stroke-miterlimit:10;stroke-width:0.5px"
		/>
		<polygon points="240.24 520.58 309.83 635.67 243.54 739.49 173.95 624.4 240.24 520.58" style="fill:none;stroke:#000;stroke-miterlimit:10;stroke-width:0.5px"
		/>
		<polygon points="479.96 871.84 549.55 986.92 483.26 1090.75 413.67 975.66 479.96 871.84" style="fill:none;stroke:#000;stroke-miterlimit:10;stroke-width:0.5px"
		/>
		<polygon points="1541.94 554.03 1611.53 669.12 1545.25 772.94 1475.66 657.85 1541.94 554.03" style="fill:none;stroke:#000;stroke-miterlimit:10;stroke-width:0.5px"
		/>
		<polygon points="1222.31 303.13 1291.9 418.22 1225.62 522.04 1156.03 406.95 1222.31 303.13" style="fill:none;stroke:#000;stroke-miterlimit:10;stroke-width:0.5px"
		/>
	</g>
</svg>