<svg xmlns="http://www.w3.org/2000/svg" viewBox="0 0 1426.04 853.19"><title>geometric</title><g style="isolation:isolate"><polygon points="882.12 129.04 953.56 15.66 1020.57 125.97 949.13 239.35 882.12 129.04" style="fill:none;stroke:#000;stroke-miterlimit:10;stroke-width:0.5px"/><polygon points="1102.06 136.45 1035.51 247.03 967.25 114.57 1033.8 3.99 1102.06 136.45" style="fill:none;stroke:#000;stroke-miterlimit:10;stroke-width:0.5px"/><polygon points="959.64 612.87 1026.66 723.17 955.39 836.28 888.38 725.97 959.64 612.87" style="fill:none;stroke:#000;stroke-miterlimit:10;stroke-width:0.5px"/><polygon points="0.29 482.94 71.56 369.84 138.57 480.15 67.31 593.25 0.29 482.94" style="fill:none;stroke:#000;stroke-miterlimit:10;stroke-width:0.5px"/><polygon points="649.19 468.7 716.2 579.01 644.94 692.11 577.93 581.8 649.19 468.7" style="fill:none;stroke:#000;stroke-miterlimit:10;stroke-width:0.5px"/><polygon points="649.88 430.8 716.89 541.1 645.45 654.48 578.44 544.17 649.88 430.8" style="fill:none;stroke:#000;stroke-miterlimit:10;stroke-width:0.5px"/><g style="opacity:0.8300000000000001;mix-blend-mode:multiply;isolation:isolate"><polygon points="433.78 281.91 505.21 168.53 572.23 278.84 500.79 392.22 433.78 281.91" style="fill:#fac551;stroke:#000;stroke-miterlimit:10;stroke-width:0.5px"/><polygon points="505.21 168.53 654.58 169.62 721.59 279.93 572.23 278.84 505.21 168.53" style="fill:#fac551;stroke:#000;stroke-miterlimit:10;stroke-width:0.5px"/><polygon points="654.31 169.76 721.32 280.07 572.31 278.98 505.3 168.67 654.31 169.76" style="fill:#fac551;stroke:#000;stroke-miterlimit:10;stroke-width:0.5px"/><polygon points="505.3 168.68 654.31 169.76 721.32 280.07 572.31 278.98 505.3 168.68" style="fill:#fac551;stroke:#000;stroke-miterlimit:10;stroke-width:0.5px"/><polygon points="721.32 280.07 650.06 393.17 501.05 392.08 572.31 278.98 721.32 280.07" style="fill:#fac551;stroke:#000;stroke-miterlimit:10;stroke-width:0.5px"/><polygon points="721.24 279.93 721.32 280.07 650.06 393.17 501.05 392.08 572.31 278.98 572.23 278.84 572.23 278.84 500.79 392.22 650.15 393.31 721.59 279.93 721.24 279.93" style="fill:#fac551;stroke:#000;stroke-miterlimit:10;stroke-width:0.5px"/><polygon points="505.3 168.67 572.31 278.98 501.05 392.08 434.04 281.78 505.3 168.67" style="fill:#fac551;stroke:#000;stroke-miterlimit:10;stroke-width:0.5px"/><polygon points="434.04 281.78 505.3 168.68 572.31 278.98 501.05 392.08 434.04 281.78" style="fill:#fac551;stroke:#000;stroke-miterlimit:10;stroke-width:0.5px"/><polygon points="583.05 282.86 654.31 169.76 721.32 280.07 650.06 393.17 583.05 282.86" style="fill:#fac551;stroke:#000;stroke-miterlimit:10;stroke-width:0.5px"/><polygon points="434.04 281.78 583.05 282.86 650.06 393.17 501.05 392.08 434.04 281.78" style="fill:#fac551;stroke:#000;stroke-miterlimit:10;stroke-width:0.5px"/><polygon points="583.05 282.86 650.06 393.17 501.05 392.08 434.04 281.78 583.05 282.86" style="fill:#fac551;stroke:#000;stroke-miterlimit:10;stroke-width:0.5px"/><polygon points="654.31 169.76 721.32 280.07 650.06 393.17 583.05 282.86 654.31 169.76" style="fill:#fac551;stroke:#000;stroke-miterlimit:10;stroke-width:0.5px"/><path d="M671.09,450.57l149.37,1.09L749,565,599.66,564ZM748.93,564.9l71.26-113.1-149-1.09-71.26,113.1,149,1.09" transform="translate(-165.88 -282.04)" style="fill:#fac551;stroke:#000;stroke-miterlimit:10;stroke-width:0.5px"/><polygon points="611.75 123.35 540.48 236.45 391.47 235.36 462.74 122.26 611.75 123.35" style="fill:#fac551;stroke:#000;stroke-miterlimit:10;stroke-width:0.5px"/><polygon points="654.58 169.62 721.59 279.93 650.15 393.31 583.14 283 654.58 169.62" style="fill:#fac551;stroke:#000;stroke-miterlimit:10;stroke-width:0.5px"/><polygon points="583.14 283 650.15 393.31 500.79 392.22 433.78 281.91 583.14 283" style="fill:#fac551;stroke:#000;stroke-miterlimit:10;stroke-width:0.5px"/></g><polygon points="736.06 67.07 665.27 181.53 535.14 182.12 605.92 67.67 736.06 67.07" style="fill:none;stroke:#000;stroke-miterlimit:10;stroke-width:0.5px"/><g style="opacity:0.8300000000000001;mix-blend-mode:multiply;isolation:isolate"><polygon points="714.1 505.12 785.53 391.74 852.55 502.05 781.11 615.43 714.1 505.12" style="fill:#471d2d;stroke:#000;stroke-miterlimit:10;stroke-width:0.5px"/><polygon points="785.53 391.74 934.9 392.83 1001.91 503.13 852.55 502.05 785.53 391.74" style="fill:#471d2d;stroke:#000;stroke-miterlimit:10;stroke-width:0.5px"/><polygon points="934.63 392.97 1001.64 503.27 852.63 502.19 785.62 391.88 934.63 392.97" style="fill:#471d2d;stroke:#000;stroke-miterlimit:10;stroke-width:0.5px"/><polygon points="785.62 391.88 934.63 392.97 1001.64 503.28 852.63 502.19 785.62 391.88" style="fill:#471d2d;stroke:#000;stroke-miterlimit:10;stroke-width:0.5px"/><polygon points="1001.64 503.28 930.38 616.38 781.37 615.29 852.63 502.19 1001.64 503.28" style="fill:#471d2d;stroke:#000;stroke-miterlimit:10;stroke-width:0.5px"/><polygon points="1001.56 503.13 1001.64 503.27 930.38 616.38 781.37 615.29 852.63 502.19 852.55 502.05 852.55 502.05 781.11 615.43 930.48 616.52 1001.91 503.14 1001.56 503.13" style="fill:#471d2d;stroke:#000;stroke-miterlimit:10;stroke-width:0.5px"/><polygon points="785.62 391.88 852.63 502.19 781.37 615.29 714.36 504.98 785.62 391.88" style="fill:#471d2d;stroke:#000;stroke-miterlimit:10;stroke-width:0.5px"/><polygon points="714.36 504.98 785.62 391.88 852.63 502.19 781.37 615.29 714.36 504.98" style="fill:#471d2d;stroke:#000;stroke-miterlimit:10;stroke-width:0.5px"/><polygon points="863.37 506.07 934.63 392.97 1001.64 503.27 930.38 616.38 863.37 506.07" style="fill:#471d2d;stroke:#000;stroke-miterlimit:10;stroke-width:0.5px"/><polygon points="714.36 504.98 863.37 506.07 930.38 616.38 781.37 615.29 714.36 504.98" style="fill:#471d2d;stroke:#000;stroke-miterlimit:10;stroke-width:0.5px"/><polygon points="863.37 506.07 930.38 616.38 781.37 615.29 714.36 504.98 863.37 506.07" style="fill:#471d2d;stroke:#000;stroke-miterlimit:10;stroke-width:0.5px"/><polygon points="934.63 392.97 1001.64 503.28 930.38 616.38 863.37 506.07 934.63 392.97" style="fill:#471d2d;stroke:#000;stroke-miterlimit:10;stroke-width:0.5px"/><path d="M951.41,673.78l149.37,1.08-71.44,113.38L880,787.16Zm77.84,114.33L1100.51,675l-149-1.08L880.24,787l149,1.09" transform="translate(-165.88 -282.04)" style="fill:#471d2d;stroke:#000;stroke-miterlimit:10;stroke-width:0.5px"/><polygon points="934.63 392.97 863.37 506.07 714.36 504.98 785.62 391.88 934.63 392.97" style="fill:#471d2d;stroke:#000;stroke-miterlimit:10;stroke-width:0.5px"/><polygon points="950.26 491.19 1017.27 601.5 945.84 714.88 878.82 604.57 950.26 491.19" style="fill:#471d2d;stroke:#000;stroke-miterlimit:10;stroke-width:0.5px"/><g style="mix-blend-mode:multiply"><polygon points="833.84 562.44 900.85 672.75 751.49 671.66 684.48 561.35 833.84 562.44" style="fill:#471d2d;stroke:#000;stroke-miterlimit:10;stroke-width:0.5px"/></g></g><g style="opacity:0.8300000000000001;mix-blend-mode:multiply;isolation:isolate"><polygon points="646.84 394.06 718.27 280.68 785.29 390.99 713.85 504.37 646.84 394.06" style="fill:#471d2d;stroke:#000;stroke-miterlimit:10;stroke-width:0.5px"/><polygon points="718.27 280.68 867.64 281.77 934.65 392.08 785.29 390.99 718.27 280.68" style="fill:#471d2d;stroke:#000;stroke-miterlimit:10;stroke-width:0.5px"/><polygon points="867.37 281.91 934.38 392.22 785.37 391.13 718.36 280.82 867.37 281.91" style="fill:#471d2d;stroke:#000;stroke-miterlimit:10;stroke-width:0.5px"/><polygon points="718.36 280.82 867.37 281.91 934.38 392.22 785.37 391.13 718.36 280.82" style="fill:#471d2d;stroke:#000;stroke-miterlimit:10;stroke-width:0.5px"/><polygon points="934.38 392.22 863.12 505.32 714.11 504.23 785.37 391.13 934.38 392.22" style="fill:#471d2d;stroke:#000;stroke-miterlimit:10;stroke-width:0.5px"/><polygon points="934.3 392.07 934.38 392.22 863.12 505.32 714.11 504.23 785.37 391.13 785.29 390.99 785.29 390.99 713.85 504.37 863.22 505.46 934.65 392.08 934.3 392.07" style="fill:#471d2d;stroke:#000;stroke-miterlimit:10;stroke-width:0.5px"/><polygon points="718.36 280.82 785.37 391.13 714.11 504.23 647.1 393.93 718.36 280.82" style="fill:#471d2d;stroke:#000;stroke-miterlimit:10;stroke-width:0.5px"/><polygon points="647.1 393.93 718.36 280.82 785.37 391.13 714.11 504.23 647.1 393.93" style="fill:#471d2d;stroke:#000;stroke-miterlimit:10;stroke-width:0.5px"/><polygon points="796.11 395.01 867.37 281.91 934.38 392.22 863.12 505.32 796.11 395.01" style="fill:#471d2d;stroke:#000;stroke-miterlimit:10;stroke-width:0.5px"/><polygon points="647.1 393.93 796.11 395.01 863.12 505.32 714.11 504.23 647.1 393.93" style="fill:#471d2d;stroke:#000;stroke-miterlimit:10;stroke-width:0.5px"/><polygon points="796.11 395.01 863.12 505.32 714.11 504.23 647.1 393.93 796.11 395.01" style="fill:#471d2d;stroke:#000;stroke-miterlimit:10;stroke-width:0.5px"/><polygon points="867.37 281.91 934.38 392.22 863.12 505.32 796.11 395.01 867.37 281.91" style="fill:#471d2d;stroke:#000;stroke-miterlimit:10;stroke-width:0.5px"/><path d="M884.15,562.72l149.37,1.09L962.08,677.19,812.72,676.1ZM962,677.05,1033.25,564l-149-1.09L813,676l149,1.09" transform="translate(-165.88 -282.04)" style="fill:#471d2d;stroke:#000;stroke-miterlimit:10;stroke-width:0.5px"/><polygon points="867.37 281.91 796.11 395.01 647.1 393.93 718.36 280.82 867.37 281.91" style="fill:#471d2d;stroke:#000;stroke-miterlimit:10;stroke-width:0.5px"/><polygon points="867.64 281.77 934.65 392.08 863.22 505.46 796.2 395.15 867.64 281.77" style="fill:#471d2d;stroke:#000;stroke-miterlimit:10;stroke-width:0.5px"/><polygon points="796.2 395.15 863.22 505.46 713.85 504.37 646.84 394.06 796.2 395.15" style="fill:#471d2d;stroke:#000;stroke-miterlimit:10;stroke-width:0.5px"/></g><g style="opacity:0.8300000000000001;mix-blend-mode:multiply;isolation:isolate"><polygon points="362.34 395.29 433.78 281.91 500.79 392.22 429.35 505.6 362.34 395.29" style="fill:#fac551;stroke:#000;stroke-miterlimit:10;stroke-width:0.5px"/><polygon points="433.78 281.91 583.14 283 650.15 393.31 500.79 392.22 433.78 281.91" style="fill:#fac551;stroke:#000;stroke-miterlimit:10;stroke-width:0.5px"/><polygon points="582.88 283.14 649.89 393.45 500.88 392.36 433.87 282.05 582.88 283.14" style="fill:#fac551;stroke:#000;stroke-miterlimit:10;stroke-width:0.5px"/><polygon points="433.87 282.06 582.88 283.14 649.89 393.45 500.88 392.36 433.87 282.06" style="fill:#fac551;stroke:#000;stroke-miterlimit:10;stroke-width:0.5px"/><polygon points="649.89 393.45 578.63 506.55 429.62 505.46 500.88 392.36 649.89 393.45" style="fill:#fac551;stroke:#000;stroke-miterlimit:10;stroke-width:0.5px"/><polygon points="649.8 393.31 649.89 393.45 578.63 506.55 429.62 505.46 500.88 392.36 500.79 392.22 500.79 392.22 429.35 505.6 578.72 506.69 650.15 393.31 649.8 393.31" style="fill:#fac551;stroke:#000;stroke-miterlimit:10;stroke-width:0.5px"/><polygon points="433.87 282.05 500.88 392.36 429.62 505.46 362.6 395.16 433.87 282.05" style="fill:#fac551;stroke:#000;stroke-miterlimit:10;stroke-width:0.5px"/><polygon points="362.6 395.16 433.87 282.06 500.88 392.36 429.62 505.46 362.6 395.16" style="fill:#fac551;stroke:#000;stroke-miterlimit:10;stroke-width:0.5px"/><polygon points="511.61 396.24 582.88 283.14 649.89 393.45 578.63 506.55 511.61 396.24" style="fill:#fac551;stroke:#000;stroke-miterlimit:10;stroke-width:0.5px"/><polygon points="362.6 395.16 511.61 396.24 578.63 506.55 429.62 505.46 362.6 395.16" style="fill:#fac551;stroke:#000;stroke-miterlimit:10;stroke-width:0.5px"/><polygon points="511.61 396.24 578.63 506.55 429.62 505.46 362.6 395.16 511.61 396.24" style="fill:#fac551;stroke:#000;stroke-miterlimit:10;stroke-width:0.5px"/><polygon points="582.88 283.14 649.89 393.45 578.63 506.55 511.61 396.24 582.88 283.14" style="fill:#fac551;stroke:#000;stroke-miterlimit:10;stroke-width:0.5px"/><path d="M599.66,564,749,565,677.59,678.42l-149.37-1.09Zm77.83,114.33,71.27-113.1-149-1.09-71.26,113.1,149,1.09" transform="translate(-165.88 -282.04)" style="fill:#fac551;stroke:#000;stroke-miterlimit:10;stroke-width:0.5px"/><polygon points="582.88 283.14 511.61 396.24 362.6 395.16 433.87 282.06 582.88 283.14" style="fill:#fac551;stroke:#000;stroke-miterlimit:10;stroke-width:0.5px"/><polygon points="583.14 283 650.15 393.31 578.72 506.69 511.7 396.38 583.14 283" style="fill:#fac551;stroke:#000;stroke-miterlimit:10;stroke-width:0.5px"/><polygon points="485.09 426.83 552.1 537.14 402.74 536.05 335.72 425.74 485.09 426.83" style="fill:#fac551;stroke:#000;stroke-miterlimit:10;stroke-width:0.5px"/></g><g style="opacity:0.8300000000000001;mix-blend-mode:multiply;isolation:isolate"><polygon points="143.68 508.61 215.12 395.23 282.13 505.54 210.69 618.92 143.68 508.61" style="fill:#4a6b6d;stroke:#000;stroke-miterlimit:10;stroke-width:0.5px"/><polygon points="215.12 395.23 364.48 396.32 431.49 506.63 282.13 505.54 215.12 395.23" style="fill:#4a6b6d;stroke:#000;stroke-miterlimit:10;stroke-width:0.5px"/><polygon points="364.21 396.46 431.23 506.77 282.22 505.68 215.2 395.38 364.21 396.46" style="fill:#4a6b6d;stroke:#000;stroke-miterlimit:10;stroke-width:0.5px"/><polygon points="215.2 395.38 364.21 396.46 431.23 506.77 282.22 505.68 215.2 395.38" style="fill:#4a6b6d;stroke:#000;stroke-miterlimit:10;stroke-width:0.5px"/><polygon points="431.23 506.77 359.96 619.87 210.96 618.79 282.22 505.68 431.23 506.77" style="fill:#4a6b6d;stroke:#000;stroke-miterlimit:10;stroke-width:0.5px"/><polygon points="431.14 506.63 431.23 506.77 359.96 619.87 210.95 618.79 282.22 505.68 282.13 505.54 282.13 505.54 210.69 618.92 360.06 620.01 431.49 506.63 431.14 506.63" style="fill:#4a6b6d;stroke:#000;stroke-miterlimit:10;stroke-width:0.5px"/><polygon points="215.2 395.38 282.22 505.68 210.96 618.79 143.94 508.48 215.2 395.38" style="fill:#4a6b6d;stroke:#000;stroke-miterlimit:10;stroke-width:0.5px"/><polygon points="143.94 508.48 215.2 395.38 282.22 505.68 210.96 618.79 143.94 508.48" style="fill:#4a6b6d;stroke:#000;stroke-miterlimit:10;stroke-width:0.5px"/><polygon points="292.95 509.57 364.21 396.46 431.23 506.77 359.96 619.87 292.95 509.57" style="fill:#4a6b6d;stroke:#000;stroke-miterlimit:10;stroke-width:0.5px"/><polygon points="143.94 508.48 292.95 509.57 359.96 619.87 210.96 618.79 143.94 508.48" style="fill:#4a6b6d;stroke:#000;stroke-miterlimit:10;stroke-width:0.5px"/><polygon points="292.95 509.57 359.96 619.87 210.96 618.79 143.94 508.48 292.95 509.57" style="fill:#4a6b6d;stroke:#000;stroke-miterlimit:10;stroke-width:0.5px"/><polygon points="364.21 396.46 431.23 506.77 359.96 619.87 292.95 509.57 364.21 396.46" style="fill:#4a6b6d;stroke:#000;stroke-miterlimit:10;stroke-width:0.5px"/><path d="M381,677.27l149.36,1.09L458.92,791.74l-149.36-1.09ZM458.83,791.6l71.26-113.1-149-1.09L309.82,790.52l149,1.08" transform="translate(-165.88 -282.04)" style="fill:#4a6b6d;stroke:#000;stroke-miterlimit:10;stroke-width:0.5px"/><polygon points="364.21 396.46 292.95 509.57 143.94 508.48 215.2 395.38 364.21 396.46" style="fill:#4a6b6d;stroke:#000;stroke-miterlimit:10;stroke-width:0.5px"/><polygon points="364.48 396.32 431.49 506.63 360.06 620.01 293.04 509.7 364.48 396.32" style="fill:#4a6b6d;stroke:#000;stroke-miterlimit:10;stroke-width:0.5px"/><polygon points="263.65 592.96 330.66 703.27 181.3 702.18 114.29 591.87 263.65 592.96" style="fill:#4a6b6d;stroke:#000;stroke-miterlimit:10;stroke-width:0.5px"/></g><g style="opacity:0.8300000000000001;mix-blend-mode:multiply;isolation:isolate"><polygon points="76.67 398.31 148.1 284.93 215.12 395.23 143.68 508.61 76.67 398.31" style="fill:#471d2d;stroke:#000;stroke-miterlimit:10;stroke-width:0.5px"/><polygon points="148.1 284.93 297.47 286.01 364.48 396.32 215.12 395.23 148.1 284.93" style="fill:#471d2d;stroke:#000;stroke-miterlimit:10;stroke-width:0.5px"/><polygon points="297.2 286.15 364.21 396.46 215.2 395.38 148.19 285.07 297.2 286.15" style="fill:#471d2d;stroke:#000;stroke-miterlimit:10;stroke-width:0.5px"/><polygon points="148.19 285.07 297.2 286.15 364.21 396.46 215.2 395.38 148.19 285.07" style="fill:#471d2d;stroke:#000;stroke-miterlimit:10;stroke-width:0.5px"/><polygon points="364.21 396.46 292.95 509.57 143.94 508.48 215.2 395.38 364.21 396.46" style="fill:#471d2d;stroke:#000;stroke-miterlimit:10;stroke-width:0.5px"/><polygon points="364.13 396.32 364.21 396.46 292.95 509.57 143.94 508.48 215.2 395.38 215.12 395.23 215.12 395.23 143.68 508.61 293.04 509.7 364.48 396.32 364.13 396.32" style="fill:#471d2d;stroke:#000;stroke-miterlimit:10;stroke-width:0.5px"/><polygon points="148.19 285.07 215.2 395.38 143.94 508.48 76.93 398.17 148.19 285.07" style="fill:#471d2d;stroke:#000;stroke-miterlimit:10;stroke-width:0.5px"/><polygon points="76.93 398.17 148.19 285.07 215.2 395.38 143.94 508.48 76.93 398.17" style="fill:#471d2d;stroke:#000;stroke-miterlimit:10;stroke-width:0.5px"/><polygon points="225.94 399.26 297.2 286.15 364.21 396.46 292.95 509.57 225.94 399.26" style="fill:#471d2d;stroke:#000;stroke-miterlimit:10;stroke-width:0.5px"/><polygon points="76.93 398.17 225.94 399.26 292.95 509.57 143.94 508.48 76.93 398.17" style="fill:#471d2d;stroke:#000;stroke-miterlimit:10;stroke-width:0.5px"/><polygon points="225.94 399.26 292.95 509.57 143.94 508.48 76.93 398.17 225.94 399.26" style="fill:#471d2d;stroke:#000;stroke-miterlimit:10;stroke-width:0.5px"/><polygon points="297.2 286.15 364.21 396.46 292.95 509.57 225.94 399.26 297.2 286.15" style="fill:#471d2d;stroke:#000;stroke-miterlimit:10;stroke-width:0.5px"/><path d="M314,567l149.37,1.09L391.91,681.43l-149.36-1.09Zm77.84,114.33,71.26-113.1-149-1.08-71.26,113.1,149,1.08" transform="translate(-165.88 -282.04)" style="fill:#471d2d;stroke:#000;stroke-miterlimit:10;stroke-width:0.5px"/><polygon points="264.49 256.7 193.22 369.81 44.21 368.72 115.48 255.62 264.49 256.7" style="fill:#471d2d;stroke:#000;stroke-miterlimit:10;stroke-width:0.5px"/><polygon points="297.47 286.01 364.48 396.32 293.04 509.7 226.03 399.39 297.47 286.01" style="fill:#471d2d;stroke:#000;stroke-miterlimit:10;stroke-width:0.5px"/><polygon points="207.01 434.8 274.03 545.11 124.66 544.02 57.65 433.71 207.01 434.8" style="fill:#471d2d;stroke:#000;stroke-miterlimit:10;stroke-width:0.5px"/></g><g style="opacity:0.8300000000000001;mix-blend-mode:multiply;isolation:isolate"><polygon points="582.83 277.75 654.26 164.37 721.27 274.68 649.84 388.06 582.83 277.75" style="fill:#4a6b6d;stroke:#000;stroke-miterlimit:10;stroke-width:0.5px"/><polygon points="654.26 164.37 803.63 165.46 870.64 275.77 721.27 274.68 654.26 164.37" style="fill:#4a6b6d;stroke:#000;stroke-miterlimit:10;stroke-width:0.5px"/><polygon points="803.36 165.6 870.37 275.91 721.36 274.82 654.35 164.51 803.36 165.6" style="fill:#4a6b6d;stroke:#000;stroke-miterlimit:10;stroke-width:0.5px"/><polygon points="654.35 164.51 803.36 165.6 870.37 275.91 721.36 274.82 654.35 164.51" style="fill:#4a6b6d;stroke:#000;stroke-miterlimit:10;stroke-width:0.5px"/><polygon points="870.37 275.91 799.11 389.01 650.1 387.93 721.36 274.82 870.37 275.91" style="fill:#4a6b6d;stroke:#000;stroke-miterlimit:10;stroke-width:0.5px"/><polygon points="870.29 275.77 870.37 275.91 799.11 389.01 650.1 387.93 721.36 274.82 721.28 274.68 721.27 274.68 649.84 388.06 799.2 389.15 870.64 275.77 870.29 275.77" style="fill:#4a6b6d;stroke:#000;stroke-miterlimit:10;stroke-width:0.5px"/><polygon points="654.35 164.51 721.36 274.82 650.1 387.92 583.09 277.62 654.35 164.51" style="fill:#4a6b6d;stroke:#000;stroke-miterlimit:10;stroke-width:0.5px"/><polygon points="583.09 277.62 654.35 164.51 721.36 274.82 650.1 387.93 583.09 277.62" style="fill:#4a6b6d;stroke:#000;stroke-miterlimit:10;stroke-width:0.5px"/><polygon points="732.1 278.7 803.36 165.6 870.37 275.91 799.11 389.01 732.1 278.7" style="fill:#4a6b6d;stroke:#000;stroke-miterlimit:10;stroke-width:0.5px"/><polygon points="583.09 277.62 732.1 278.7 799.11 389.01 650.1 387.92 583.09 277.62" style="fill:#4a6b6d;stroke:#000;stroke-miterlimit:10;stroke-width:0.5px"/><polygon points="732.1 278.7 799.11 389.01 650.1 387.93 583.09 277.62 732.1 278.7" style="fill:#4a6b6d;stroke:#000;stroke-miterlimit:10;stroke-width:0.5px"/><polygon points="803.36 165.6 870.37 275.91 799.11 389.01 732.1 278.7 803.36 165.6" style="fill:#4a6b6d;stroke:#000;stroke-miterlimit:10;stroke-width:0.5px"/><path d="M820.14,446.41l149.37,1.09L898.07,560.88,748.7,559.79ZM898,560.74l71.26-113.1-149-1.09L749,559.65l149,1.09" transform="translate(-165.88 -282.04)" style="fill:#4a6b6d;stroke:#000;stroke-miterlimit:10;stroke-width:0.5px"/><polygon points="776.32 117.16 705.06 230.26 556.05 229.18 627.31 116.07 776.32 117.16" style="fill:#4a6b6d;stroke:#000;stroke-miterlimit:10;stroke-width:0.5px"/><polygon points="803.63 165.46 870.64 275.77 799.2 389.15 732.19 278.84 803.63 165.46" style="fill:#4a6b6d;stroke:#000;stroke-miterlimit:10;stroke-width:0.5px"/><polygon points="732.19 278.84 799.2 389.15 649.84 388.06 582.83 277.75 732.19 278.84" style="fill:#4a6b6d;stroke:#000;stroke-miterlimit:10;stroke-width:0.5px"/></g><g style="opacity:0.8300000000000001;mix-blend-mode:multiply;isolation:isolate"><polygon points="1077.82 386.42 1149.26 273.04 1216.27 383.34 1144.84 496.73 1077.82 386.42" style="fill:#a44a3f;stroke:#000;stroke-miterlimit:10;stroke-width:0.5px"/><polygon points="1149.26 273.04 1298.63 274.13 1365.64 384.43 1216.27 383.34 1149.26 273.04" style="fill:#a44a3f;stroke:#000;stroke-miterlimit:10;stroke-width:0.5px"/><polygon points="1298.36 274.27 1365.37 384.57 1216.36 383.49 1149.35 273.18 1298.36 274.27" style="fill:#a44a3f;stroke:#000;stroke-miterlimit:10;stroke-width:0.5px"/><polygon points="1149.35 273.18 1298.36 274.27 1365.37 384.57 1216.36 383.49 1149.35 273.18" style="fill:#a44a3f;stroke:#000;stroke-miterlimit:10;stroke-width:0.5px"/><polygon points="1365.37 384.57 1294.11 497.68 1145.1 496.59 1216.36 383.49 1365.37 384.57" style="fill:#a44a3f;stroke:#000;stroke-miterlimit:10;stroke-width:0.5px"/><polygon points="1365.29 384.43 1365.37 384.57 1294.11 497.68 1145.1 496.59 1216.36 383.49 1216.28 383.35 1216.27 383.35 1144.84 496.73 1294.2 497.81 1365.64 384.43 1365.29 384.43" style="fill:#a44a3f;stroke:#000;stroke-miterlimit:10;stroke-width:0.5px"/><polygon points="1149.35 273.18 1216.36 383.49 1145.1 496.59 1078.09 386.28 1149.35 273.18" style="fill:#a44a3f;stroke:#000;stroke-miterlimit:10;stroke-width:0.5px"/><polygon points="1078.09 386.28 1149.35 273.18 1216.36 383.49 1145.1 496.59 1078.09 386.28" style="fill:#a44a3f;stroke:#000;stroke-miterlimit:10;stroke-width:0.5px"/><polygon points="1227.1 387.37 1298.36 274.27 1365.37 384.57 1294.11 497.68 1227.1 387.37" style="fill:#a44a3f;stroke:#000;stroke-miterlimit:10;stroke-width:0.5px"/><polygon points="1078.09 386.28 1227.1 387.37 1294.11 497.68 1145.1 496.59 1078.09 386.28" style="fill:#a44a3f;stroke:#000;stroke-miterlimit:10;stroke-width:0.5px"/><polygon points="1227.1 387.37 1294.11 497.68 1145.1 496.59 1078.09 386.28 1227.1 387.37" style="fill:#a44a3f;stroke:#000;stroke-miterlimit:10;stroke-width:0.5px"/><polygon points="1298.36 274.27 1365.37 384.57 1294.11 497.68 1227.1 387.37 1298.36 274.27" style="fill:#a44a3f;stroke:#000;stroke-miterlimit:10;stroke-width:0.5px"/><path d="M1315.14,555.07l149.37,1.09-71.44,113.38-149.37-1.09ZM1393,669.41l71.26-113.11-149-1.08L1244,668.32l149,1.09" transform="translate(-165.88 -282.04)" style="fill:#a44a3f;stroke:#000;stroke-miterlimit:10;stroke-width:0.5px"/><polygon points="1298.36 274.27 1227.1 387.37 1078.09 386.28 1149.35 273.18 1298.36 274.27" style="fill:#a44a3f;stroke:#000;stroke-miterlimit:10;stroke-width:0.5px"/><polygon points="1345.14 270.44 1412.15 380.75 1340.71 494.13 1273.7 383.82 1345.14 270.44" style="fill:#a44a3f;stroke:#000;stroke-miterlimit:10;stroke-width:0.5px"/><polygon points="1227.19 387.51 1294.2 497.81 1144.84 496.73 1077.82 386.42 1227.19 387.51" style="fill:#a44a3f;stroke:#000;stroke-miterlimit:10;stroke-width:0.5px"/></g><g style="opacity:0.8300000000000001;mix-blend-mode:multiply;isolation:isolate"><polygon points="1005.9 499.39 1077.34 386.01 1144.35 496.32 1072.92 609.7 1005.9 499.39" style="fill:#fac551;stroke:#000;stroke-miterlimit:10;stroke-width:0.5px"/><polygon points="1077.34 386.01 1226.71 387.1 1293.72 497.41 1144.35 496.32 1077.34 386.01" style="fill:#fac551;stroke:#000;stroke-miterlimit:10;stroke-width:0.5px"/><polygon points="1226.44 387.24 1293.45 497.55 1144.44 496.46 1077.43 386.15 1226.44 387.24" style="fill:#fac551;stroke:#000;stroke-miterlimit:10;stroke-width:0.5px"/><polygon points="1077.43 386.15 1226.44 387.24 1293.45 497.55 1144.44 496.46 1077.43 386.15" style="fill:#fac551;stroke:#000;stroke-miterlimit:10;stroke-width:0.5px"/><polygon points="1293.45 497.55 1222.19 610.65 1073.18 609.56 1144.44 496.46 1293.45 497.55" style="fill:#fac551;stroke:#000;stroke-miterlimit:10;stroke-width:0.5px"/><polygon points="1293.37 497.4 1293.45 497.55 1222.19 610.65 1073.18 609.56 1144.44 496.46 1144.36 496.32 1144.35 496.32 1072.92 609.7 1222.28 610.79 1293.72 497.41 1293.37 497.4" style="fill:#fac551;stroke:#000;stroke-miterlimit:10;stroke-width:0.5px"/><polygon points="1077.43 386.15 1144.44 496.46 1073.18 609.56 1006.17 499.25 1077.43 386.15" style="fill:#fac551;stroke:#000;stroke-miterlimit:10;stroke-width:0.5px"/><polygon points="1006.17 499.25 1077.43 386.15 1144.44 496.46 1073.18 609.56 1006.17 499.25" style="fill:#fac551;stroke:#000;stroke-miterlimit:10;stroke-width:0.5px"/><polygon points="1155.18 500.34 1226.44 387.24 1293.45 497.55 1222.19 610.65 1155.18 500.34" style="fill:#fac551;stroke:#000;stroke-miterlimit:10;stroke-width:0.5px"/><polygon points="1006.17 499.25 1155.18 500.34 1222.19 610.65 1073.18 609.56 1006.17 499.25" style="fill:#fac551;stroke:#000;stroke-miterlimit:10;stroke-width:0.5px"/><polygon points="1155.18 500.34 1222.19 610.65 1073.18 609.56 1006.17 499.25 1155.18 500.34" style="fill:#fac551;stroke:#000;stroke-miterlimit:10;stroke-width:0.5px"/><polygon points="1226.44 387.24 1293.45 497.55 1222.19 610.65 1155.18 500.34 1226.44 387.24" style="fill:#fac551;stroke:#000;stroke-miterlimit:10;stroke-width:0.5px"/><path d="M1243.22,668.05l149.37,1.09-71.44,113.38-149.37-1.09Zm77.84,114.33,71.26-113.1-149-1.09-71.26,113.1,149,1.09" transform="translate(-165.88 -282.04)" style="fill:#fac551;stroke:#000;stroke-miterlimit:10;stroke-width:0.5px"/><polygon points="1226.44 387.24 1155.18 500.34 1006.17 499.25 1077.43 386.15 1226.44 387.24" style="fill:#fac551;stroke:#000;stroke-miterlimit:10;stroke-width:0.5px"/><polygon points="1226.71 387.1 1293.72 497.41 1222.28 610.79 1155.27 500.48 1226.71 387.1" style="fill:#fac551;stroke:#000;stroke-miterlimit:10;stroke-width:0.5px"/><polygon points="1155.27 500.48 1222.28 610.79 1072.92 609.7 1005.9 499.39 1155.27 500.48" style="fill:#fac551;stroke:#000;stroke-miterlimit:10;stroke-width:0.5px"/></g><g style="opacity:0.8;mix-blend-mode:multiply;isolation:isolate"><g style="opacity:0.8300000000000001;mix-blend-mode:multiply"><polygon points="862.56 272.94 934 159.56 1001.01 269.87 929.57 383.25 862.56 272.94" style="fill:#4a6b6d;stroke:#000;stroke-miterlimit:10;stroke-width:0.5px"/></g><g style="opacity:0.8300000000000001;mix-blend-mode:multiply"><polygon points="934 159.56 1083.36 160.65 1150.38 270.96 1001.01 269.87 934 159.56" style="fill:#4a6b6d;stroke:#000;stroke-miterlimit:10;stroke-width:0.5px"/></g><g style="opacity:0.8300000000000001;mix-blend-mode:multiply"><polygon points="1083.1 160.79 1150.11 271.1 1001.1 270.01 934.09 159.71 1083.1 160.79" style="fill:#4a6b6d;stroke:#000;stroke-miterlimit:10;stroke-width:0.5px"/></g><g style="opacity:0.8300000000000001;mix-blend-mode:multiply"><polygon points="934.09 159.71 1083.1 160.79 1150.11 271.1 1001.1 270.01 934.09 159.71" style="fill:#4a6b6d;stroke:#000;stroke-miterlimit:10;stroke-width:0.5px"/></g><g style="opacity:0.8300000000000001;mix-blend-mode:multiply"><polygon points="1150.11 271.1 1078.85 384.2 929.84 383.12 1001.1 270.01 1150.11 271.1" style="fill:#4a6b6d;stroke:#000;stroke-miterlimit:10;stroke-width:0.5px"/></g><g style="opacity:0.8300000000000001;mix-blend-mode:multiply"><polygon points="1150.02 270.96 1150.11 271.1 1078.85 384.2 929.84 383.12 1001.1 270.01 1001.01 269.87 1001.01 269.87 929.57 383.25 1078.94 384.34 1150.38 270.96 1150.02 270.96" style="fill:#4a6b6d;stroke:#000;stroke-miterlimit:10;stroke-width:0.5px"/></g><g style="opacity:0.8300000000000001;mix-blend-mode:multiply"><polygon points="934.09 159.71 1001.1 270.01 929.84 383.12 862.82 272.81 934.09 159.71" style="fill:#4a6b6d;stroke:#000;stroke-miterlimit:10;stroke-width:0.5px"/></g><g style="opacity:0.8300000000000001;mix-blend-mode:multiply"><polygon points="862.82 272.81 934.09 159.71 1001.1 270.01 929.84 383.12 862.82 272.81" style="fill:#4a6b6d;stroke:#000;stroke-miterlimit:10;stroke-width:0.5px"/></g><g style="opacity:0.8300000000000001;mix-blend-mode:multiply"><polygon points="1011.84 273.89 1083.1 160.79 1150.11 271.1 1078.85 384.2 1011.84 273.89" style="fill:#4a6b6d;stroke:#000;stroke-miterlimit:10;stroke-width:0.5px"/></g><g style="opacity:0.8300000000000001;mix-blend-mode:multiply"><polygon points="862.82 272.81 1011.84 273.89 1078.85 384.2 929.84 383.12 862.82 272.81" style="fill:#4a6b6d;stroke:#000;stroke-miterlimit:10;stroke-width:0.5px"/></g><g style="opacity:0.8300000000000001;mix-blend-mode:multiply"><polygon points="1011.84 273.9 1078.85 384.2 929.84 383.12 862.82 272.81 1011.84 273.9" style="fill:#4a6b6d;stroke:#000;stroke-miterlimit:10;stroke-width:0.5px"/></g><g style="opacity:0.8300000000000001;mix-blend-mode:multiply"><polygon points="1083.1 160.79 1150.11 271.1 1078.85 384.2 1011.84 273.9 1083.1 160.79" style="fill:#4a6b6d;stroke:#000;stroke-miterlimit:10;stroke-width:0.5px"/></g><g style="opacity:0.8300000000000001;mix-blend-mode:multiply"><path d="M1099.88,441.6l149.36,1.09-71.43,113.38L1028.44,555Zm77.83,114.33L1249,442.83l-149-1.09L1028.7,554.85l149,1.08" transform="translate(-165.88 -282.04)" style="fill:#4a6b6d;stroke:#000;stroke-miterlimit:10;stroke-width:0.5px"/></g><g style="opacity:0.8300000000000001;mix-blend-mode:multiply"><polygon points="1083.1 160.79 1011.84 273.9 862.82 272.81 934.09 159.71 1083.1 160.79" style="fill:#4a6b6d;stroke:#000;stroke-miterlimit:10;stroke-width:0.5px"/></g><polygon points="1007.59 8.29 1074.61 118.59 1003.17 231.97 936.16 121.67 1007.59 8.29" style="fill:#4a6b6d;stroke:#000;stroke-miterlimit:10;stroke-width:0.5px;opacity:0.8300000000000001;mix-blend-mode:multiply"/><g style="opacity:0.8300000000000001;mix-blend-mode:multiply"><polygon points="977.06 323.41 1044.07 433.72 894.71 432.63 827.69 322.32 977.06 323.41" style="fill:#4a6b6d;stroke:#000;stroke-miterlimit:10;stroke-width:0.5px"/></g></g><g style="opacity:0.8300000000000001;mix-blend-mode:multiply;isolation:isolate"><polygon points="360.95 620.5 432.39 507.12 499.4 617.43 427.96 730.81 360.95 620.5" style="fill:#a44a3f;stroke:#000;stroke-miterlimit:10;stroke-width:0.5px"/><polygon points="432.39 507.12 581.75 508.21 648.76 618.52 499.4 617.43 432.39 507.12" style="fill:#a44a3f;stroke:#000;stroke-miterlimit:10;stroke-width:0.5px"/><polygon points="581.49 508.35 648.5 618.66 499.49 617.57 432.48 507.26 581.49 508.35" style="fill:#a44a3f;stroke:#000;stroke-miterlimit:10;stroke-width:0.5px"/><polygon points="432.48 507.26 581.49 508.35 648.5 618.66 499.49 617.57 432.48 507.26" style="fill:#a44a3f;stroke:#000;stroke-miterlimit:10;stroke-width:0.5px"/><polygon points="648.5 618.66 577.24 731.76 428.23 730.67 499.49 617.57 648.5 618.66" style="fill:#a44a3f;stroke:#000;stroke-miterlimit:10;stroke-width:0.5px"/><polygon points="648.41 618.52 648.5 618.66 577.24 731.76 428.23 730.67 499.49 617.57 499.4 617.43 499.4 617.43 427.96 730.81 577.33 731.9 648.76 618.52 648.41 618.52" style="fill:#a44a3f;stroke:#000;stroke-miterlimit:10;stroke-width:0.5px"/><polygon points="432.48 507.26 499.49 617.57 428.23 730.67 361.21 620.37 432.48 507.26" style="fill:#a44a3f;stroke:#000;stroke-miterlimit:10;stroke-width:0.5px"/><polygon points="361.21 620.37 432.48 507.26 499.49 617.57 428.23 730.67 361.21 620.37" style="fill:#a44a3f;stroke:#000;stroke-miterlimit:10;stroke-width:0.5px"/><polygon points="510.22 621.45 581.49 508.35 648.5 618.66 577.24 731.76 510.22 621.45" style="fill:#a44a3f;stroke:#000;stroke-miterlimit:10;stroke-width:0.5px"/><polygon points="361.21 620.37 510.22 621.45 577.24 731.76 428.23 730.67 361.21 620.37" style="fill:#a44a3f;stroke:#000;stroke-miterlimit:10;stroke-width:0.5px"/><g style="mix-blend-mode:multiply"><polygon points="510.22 621.45 577.24 731.76 428.23 730.67 361.21 620.37 510.22 621.45" style="fill:#a44a3f;stroke:#000;stroke-miterlimit:10;stroke-width:0.5px"/></g><polygon points="581.49 508.35 648.5 618.66 577.24 731.76 510.22 621.45 581.49 508.35" style="fill:#a44a3f;stroke:#000;stroke-miterlimit:10;stroke-width:0.5px"/><path d="M598.27,789.16l149.36,1.09L676.2,903.63l-149.37-1.09ZM676.1,903.49l71.27-113.1-149-1.09L527.09,902.4l149,1.09" transform="translate(-165.88 -282.04)" style="fill:#a44a3f;stroke:#000;stroke-miterlimit:10;stroke-width:0.5px"/><polygon points="581.49 508.35 510.22 621.45 361.21 620.37 432.48 507.26 581.49 508.35" style="fill:#a44a3f;stroke:#000;stroke-miterlimit:10;stroke-width:0.5px"/><polygon points="643.24 509.06 710.25 619.37 638.82 732.75 571.8 622.44 643.24 509.06" style="fill:#a44a3f;stroke:#000;stroke-miterlimit:10;stroke-width:0.5px;mix-blend-mode:multiply"/><polygon points="409.75 621.62 476.77 731.93 327.4 730.84 260.39 620.53 409.75 621.62" style="fill:#a44a3f;stroke:#000;stroke-miterlimit:10;stroke-width:0.5px"/></g><g style="opacity:0.8300000000000001;mix-blend-mode:multiply;isolation:isolate"><polygon points="932.63 615.63 1004.06 502.25 1071.08 612.55 999.64 725.93 932.63 615.63" style="fill:#4a6b6d;stroke:#000;stroke-miterlimit:10;stroke-width:0.5px"/><polygon points="1004.06 502.25 1153.43 503.34 1220.44 613.64 1071.08 612.55 1004.06 502.25" style="fill:#4a6b6d;stroke:#000;stroke-miterlimit:10;stroke-width:0.5px"/><polygon points="1153.16 503.48 1220.17 613.78 1071.16 612.7 1004.15 502.39 1153.16 503.48" style="fill:#4a6b6d;stroke:#000;stroke-miterlimit:10;stroke-width:0.5px"/><polygon points="1004.15 502.39 1153.16 503.48 1220.17 613.78 1071.16 612.7 1004.15 502.39" style="fill:#4a6b6d;stroke:#000;stroke-miterlimit:10;stroke-width:0.5px"/><polygon points="1220.17 613.78 1148.91 726.89 999.9 725.8 1071.16 612.7 1220.17 613.78" style="fill:#4a6b6d;stroke:#000;stroke-miterlimit:10;stroke-width:0.5px"/><polygon points="1220.09 613.64 1220.17 613.78 1148.91 726.89 999.9 725.8 1071.16 612.7 1071.08 612.56 1071.08 612.56 999.64 725.94 1149 727.02 1220.44 613.64 1220.09 613.64" style="fill:#4a6b6d;stroke:#000;stroke-miterlimit:10;stroke-width:0.5px"/><polygon points="1004.15 502.39 1071.16 612.7 999.9 725.8 932.89 615.49 1004.15 502.39" style="fill:#4a6b6d;stroke:#000;stroke-miterlimit:10;stroke-width:0.5px"/><polygon points="932.89 615.49 1004.15 502.39 1071.16 612.7 999.9 725.8 932.89 615.49" style="fill:#4a6b6d;stroke:#000;stroke-miterlimit:10;stroke-width:0.5px"/><polygon points="1081.9 616.58 1153.16 503.48 1220.17 613.78 1148.91 726.89 1081.9 616.58" style="fill:#4a6b6d;stroke:#000;stroke-miterlimit:10;stroke-width:0.5px"/><polygon points="932.89 615.49 1081.9 616.58 1148.91 726.89 999.9 725.8 932.89 615.49" style="fill:#4a6b6d;stroke:#000;stroke-miterlimit:10;stroke-width:0.5px"/><polygon points="1081.9 616.58 1148.91 726.89 999.9 725.8 932.89 615.49 1081.9 616.58" style="fill:#4a6b6d;stroke:#000;stroke-miterlimit:10;stroke-width:0.5px"/><polygon points="1153.16 503.48 1220.17 613.78 1148.91 726.89 1081.9 616.58 1153.16 503.48" style="fill:#4a6b6d;stroke:#000;stroke-miterlimit:10;stroke-width:0.5px"/><path d="M1169.94,784.28l149.37,1.09-71.44,113.38-149.36-1.09Zm77.84,114.34L1319,785.51l-149-1.08-71.26,113.1,149,1.09" transform="translate(-165.88 -282.04)" style="fill:#4a6b6d;stroke:#000;stroke-miterlimit:10;stroke-width:0.5px"/><polygon points="1153.16 503.48 1081.9 616.58 932.89 615.49 1004.15 502.39 1153.16 503.48" style="fill:#4a6b6d;stroke:#000;stroke-miterlimit:10;stroke-width:0.5px"/><polygon points="1153.43 503.34 1220.44 613.64 1149 727.02 1081.99 616.72 1153.43 503.34" style="fill:#4a6b6d;stroke:#000;stroke-miterlimit:10;stroke-width:0.5px"/><polygon points="1081.99 616.72 1149 727.02 999.64 725.93 932.63 615.63 1081.99 616.72" style="fill:#4a6b6d;stroke:#000;stroke-miterlimit:10;stroke-width:0.5px"/></g><g style="opacity:0.26;mix-blend-mode:multiply;isolation:isolate"><polygon points="208.82 239.71 280.25 126.33 347.26 236.64 275.83 350.02 208.82 239.71" style="fill:none;stroke:#000;stroke-miterlimit:10;stroke-width:0.5px"/><polygon points="280.25 126.33 429.62 127.42 496.63 237.73 347.26 236.64 280.25 126.33" style="fill:none;stroke:#000;stroke-miterlimit:10;stroke-width:0.5px"/><polygon points="429.35 127.56 496.36 237.87 347.35 236.78 280.34 126.48 429.35 127.56" style="fill:none;stroke:#000;stroke-miterlimit:10;stroke-width:0.5px"/><polygon points="280.34 126.48 429.35 127.56 496.36 237.87 347.35 236.78 280.34 126.48" style="fill:none;stroke:#000;stroke-miterlimit:10;stroke-width:0.5px"/><polygon points="496.36 237.87 425.1 350.97 276.09 349.89 347.35 236.78 496.36 237.87" style="fill:none;stroke:#000;stroke-miterlimit:10;stroke-width:0.5px"/><polygon points="496.28 237.73 496.36 237.87 425.1 350.97 276.09 349.89 347.35 236.78 347.27 236.64 347.26 236.64 275.83 350.02 425.19 351.11 496.63 237.73 496.28 237.73" style="fill:none;stroke:#000;stroke-miterlimit:10;stroke-width:0.5px"/><polygon points="280.34 126.48 347.35 236.78 276.09 349.89 209.08 239.58 280.34 126.48" style="fill:none;stroke:#000;stroke-miterlimit:10;stroke-width:0.5px"/><polygon points="209.08 239.58 280.34 126.48 347.35 236.78 276.09 349.89 209.08 239.58" style="fill:none;stroke:#000;stroke-miterlimit:10;stroke-width:0.5px"/><polygon points="358.09 240.66 429.35 127.56 496.36 237.87 425.1 350.97 358.09 240.66" style="fill:none;stroke:#000;stroke-miterlimit:10;stroke-width:0.5px"/><polygon points="209.08 239.58 358.09 240.66 425.1 350.97 276.09 349.89 209.08 239.58" style="fill:none;stroke:#000;stroke-miterlimit:10;stroke-width:0.5px"/><polygon points="358.09 240.66 425.1 350.97 276.09 349.89 209.08 239.58 358.09 240.66" style="fill:none;stroke:#000;stroke-miterlimit:10;stroke-width:0.5px"/><polygon points="429.35 127.56 496.36 237.87 425.1 350.97 358.09 240.66 429.35 127.56" style="fill:none;stroke:#000;stroke-miterlimit:10;stroke-width:0.5px"/><path d="M446.13,408.37l149.37,1.09L524.06,522.84,374.7,521.75ZM524,522.7l89.3-141.77-149-1.09L375,521.62l149,1.08" transform="translate(-165.88 -282.04)" style="fill:none;stroke:#000;stroke-miterlimit:10;stroke-width:0.5px"/><polygon points="429.35 127.56 358.09 240.66 165.26 241.97 236.52 128.87 429.35 127.56" style="fill:none;stroke:#000;stroke-miterlimit:10;stroke-width:0.5px"/><polygon points="429.62 127.42 496.63 237.73 425.19 351.11 358.18 240.8 429.62 127.42" style="fill:none;stroke:#000;stroke-miterlimit:10;stroke-width:0.5px"/><polygon points="355.6 240.8 422.62 351.11 260.23 381.78 208.82 239.71 355.6 240.8" style="fill:none;stroke:#000;stroke-miterlimit:10;stroke-width:0.5px"/></g><polygon points="571.37 0.52 651.27 134.72 579.83 248.1 499.99 140.55 571.37 0.52" style="fill:none;stroke:#000;stroke-miterlimit:10;stroke-width:0.5px"/><polygon points="316.92 629.03 383.94 739.34 312.5 852.72 245.49 742.41 316.92 629.03" style="fill:none;stroke:#000;stroke-miterlimit:10;stroke-width:0.5px"/><polygon points="1356.15 341.89 1425.74 456.98 1359.46 560.8 1289.87 445.72 1356.15 341.89" style="fill:none;stroke:#000;stroke-miterlimit:10;stroke-width:0.5px"/><polygon points="75.29 278.49 142.31 388.8 70.87 502.18 3.86 391.87 75.29 278.49" style="fill:none;stroke:#000;stroke-miterlimit:10;stroke-width:0.5px"/><polygon points="958.11 565.66 1025.12 675.97 953.69 789.35 886.67 679.04 958.11 565.66" style="fill:none;stroke:#000;stroke-miterlimit:10;stroke-width:0.5px"/><polygon points="74.09 196.29 143.68 311.38 77.4 415.2 7.81 300.11 74.09 196.29" style="fill:none;stroke:#000;stroke-miterlimit:10;stroke-width:0.5px"/><polygon points="313.81 586.55 383.4 701.64 317.12 805.46 247.53 690.38 313.81 586.55" style="fill:none;stroke:#000;stroke-miterlimit:10;stroke-width:0.5px"/><polygon points="1225.78 136.74 1295.37 251.82 1229.09 355.64 1159.5 240.56 1225.78 136.74" style="fill:none;stroke:#000;stroke-miterlimit:10;stroke-width:0.5px"/><polygon points="1083.17 14.85 1152.76 129.94 1086.48 233.76 1016.89 118.67 1083.17 14.85" style="fill:none;stroke:#000;stroke-miterlimit:10;stroke-width:0.5px"/></g></svg>